# Blender v2.79 (sub 0) OBJ File: ''
# www.blender.org
mtllib icosWireframe_1.mtl
o Icosphere
v 0.000000 -0.980000 0.000000
v 0.000000 -1.020000 0.000000
v -0.709128 -0.438271 -0.515206
v -0.738072 -0.456159 -0.536234
v 0.270857 -0.438271 -0.833627
v 0.281913 -0.456159 -0.867653
v 0.876537 -0.438271 0.000000
v 0.912313 -0.456159 0.000000
v 0.270857 -0.438271 0.833627
v 0.281913 -0.456159 0.867653
v -0.709128 -0.438271 0.515206
v -0.738072 -0.456159 0.536234
v -0.270857 0.438271 -0.833627
v -0.281913 0.456159 -0.867653
v 0.709128 0.438271 -0.515206
v 0.738072 0.456159 -0.536234
v 0.709128 0.438271 0.515206
v 0.738072 0.456159 0.536234
v -0.270857 0.438271 0.833627
v -0.281913 0.456159 0.867653
v -0.876537 0.438271 0.000000
v -0.912313 0.456159 0.000000
v 0.000000 0.980000 0.000000
v 0.000000 1.020000 0.000000
v -0.009823 -0.975717 -0.030230
v -0.685743 -0.459356 -0.521310
v 0.248351 -0.459356 -0.824820
v -0.707707 -0.459356 -0.491079
v -0.031786 -0.975717 0.000000
v -0.707707 -0.459356 0.491079
v 0.025715 -0.975717 -0.018683
v 0.283889 -0.459356 -0.813273
v 0.861205 -0.459356 -0.018683
v 0.025715 -0.975717 0.018683
v 0.861205 -0.459356 0.018683
v 0.283889 -0.459356 0.813273
v -0.009823 -0.975717 0.030230
v 0.248351 -0.459356 0.824820
v -0.685743 -0.459356 0.521310
v -0.727352 -0.427570 -0.491079
v -0.727352 -0.427570 0.491079
v -0.886921 0.407924 0.000000
v 0.242281 -0.427570 -0.843504
v -0.691814 -0.427570 -0.539993
v -0.274067 0.407925 -0.843504
v 0.877099 -0.427570 -0.030230
v 0.299782 -0.427570 -0.824820
v 0.717529 0.407925 -0.521310
v 0.299782 -0.427570 0.824820
v 0.877099 -0.427570 0.030230
v 0.717529 0.407925 0.521310
v -0.691814 -0.427570 0.539993
v 0.242281 -0.427570 0.843504
v -0.274067 0.407925 0.843504
v -0.717529 -0.407925 -0.521310
v -0.877099 0.427570 -0.030230
v -0.299782 0.427570 -0.824820
v 0.274067 -0.407925 -0.843504
v -0.242281 0.427570 -0.843504
v 0.691814 0.427570 -0.539993
v 0.886921 -0.407924 0.000000
v 0.727352 0.427570 -0.491079
v 0.727352 0.427570 0.491079
v 0.274067 -0.407925 0.843504
v 0.691814 0.427570 0.539993
v -0.242281 0.427570 0.843504
v -0.717529 -0.407925 0.521310
v -0.299782 0.427570 0.824820
v -0.877099 0.427570 0.030230
v -0.283889 0.459356 -0.813273
v -0.861205 0.459356 -0.018683
v -0.025715 0.975717 -0.018683
v 0.685743 0.459356 -0.521310
v -0.248351 0.459356 -0.824820
v 0.009823 0.975717 -0.030230
v 0.707707 0.459356 0.491079
v 0.707707 0.459356 -0.491079
v 0.031786 0.975717 0.000000
v -0.248351 0.459356 0.824820
v 0.685743 0.459356 0.521310
v 0.009823 0.975717 0.030230
v -0.861205 0.459356 0.018683
v -0.283889 0.459356 0.813273
v -0.025715 0.975717 0.018683
vt 0.818181 0.000000
vt 0.727272 0.157461
vt 0.727272 0.157461
vt 0.818181 0.000000
vt 0.818181 0.000000
vt 0.727272 0.157461
vt 0.909090 0.157461
vt 0.909090 0.157461
vt 0.909090 0.157461
vt 0.727272 0.157461
vt 0.636363 0.000000
vt 0.636363 0.000000
vt 0.636363 0.000000
vt 0.545454 0.157461
vt 0.545454 0.157461
vt 0.545454 0.157461
vt 0.090909 0.000000
vt 0.000000 0.157461
vt 0.000000 0.157461
vt 0.090909 0.000000
vt 0.090909 0.000000
vt 0.000000 0.157461
vt 0.181818 0.157461
vt 0.181818 0.157461
vt 0.181818 0.157461
vt 0.272727 0.000000
vt 0.181818 0.157461
vt 0.272727 0.000000
vt 0.272727 0.000000
vt 0.363636 0.157461
vt 0.363636 0.157461
vt 0.363636 0.157461
vt 0.454545 0.000000
vt 0.363636 0.157461
vt 0.454545 0.000000
vt 0.454545 0.000000
vt 0.545454 0.157461
vt 0.727272 0.157461
vt 0.545454 0.157461
vt 0.636363 0.314921
vt 0.636363 0.314921
vt 0.636363 0.314921
vt 0.909090 0.157461
vt 0.727272 0.157461
vt 0.818181 0.314921
vt 0.818181 0.314921
vt 0.818181 0.314921
vt 0.181818 0.157461
vt 0.000000 0.157461
vt 0.090909 0.314921
vt 0.090909 0.314921
vt 0.090909 0.314921
vt 0.363636 0.157461
vt 0.181818 0.157461
vt 0.272727 0.314921
vt 0.272727 0.314921
vt 0.272727 0.314921
vt 0.545454 0.157461
vt 0.363636 0.157461
vt 0.454545 0.314921
vt 0.454545 0.314921
vt 0.454545 0.314921
vt 0.727272 0.157461
vt 0.636363 0.314921
vt 0.818181 0.314921
vt 0.909090 0.157461
vt 0.818181 0.314921
vt 1.000000 0.314921
vt 1.000000 0.314921
vt 1.000000 0.314921
vt 0.181818 0.157461
vt 0.090909 0.314921
vt 0.272727 0.314921
vt 0.363636 0.157461
vt 0.272727 0.314921
vt 0.454545 0.314921
vt 0.545454 0.157461
vt 0.454545 0.314921
vt 0.636363 0.314921
vt 0.818181 0.314921
vt 0.636363 0.314921
vt 0.727272 0.472382
vt 0.727272 0.472382
vt 0.727272 0.472382
vt 1.000000 0.314921
vt 0.818181 0.314921
vt 0.909090 0.472382
vt 0.909090 0.472382
vt 0.909090 0.472382
vt 0.272727 0.314921
vt 0.090909 0.314921
vt 0.181818 0.472382
vt 0.181818 0.472382
vt 0.181818 0.472382
vt 0.454545 0.314921
vt 0.272727 0.314921
vt 0.363636 0.472382
vt 0.363636 0.472382
vt 0.363636 0.472382
vt 0.636363 0.314921
vt 0.454545 0.314921
vt 0.545454 0.472382
vt 0.545454 0.472382
vt 0.545454 0.472382
vn 0.6507 0.7520 -0.1049
vn 0.2046 -0.5205 -0.8290
vn 0.3083 0.0672 0.9489
vn -0.0324 -0.9945 -0.0996
vn -0.5881 0.7520 0.2976
vn -0.6528 -0.5205 -0.5504
vn 0.1013 0.7520 0.6513
vn -0.7252 -0.5205 0.4508
vn 0.1013 0.7520 -0.6513
vn -0.7252 -0.5205 -0.4508
vn 0.9977 0.0672 0.0000
vn -0.1047 -0.9945 0.0000
vn 0.3008 0.7520 0.5865
vn 0.8516 -0.5205 -0.0616
vn -0.8072 0.0673 0.5865
vn 0.0847 -0.9945 -0.0616
vn -0.4648 0.7520 -0.4673
vn 0.3217 -0.5205 -0.7909
vn -0.4648 0.7520 0.4673
vn 0.3217 -0.5205 0.7909
vn -0.8072 0.0673 -0.5865
vn 0.0847 -0.9945 0.0616
vn 0.3008 0.7520 -0.5865
vn 0.8516 -0.5205 0.0616
vn -0.5881 0.7520 -0.2976
vn -0.6528 -0.5205 0.5504
vn 0.3083 0.0672 -0.9489
vn -0.0324 -0.9945 0.0996
vn 0.6507 0.7520 0.1049
vn 0.2046 -0.5205 0.8290
vn 0.5064 0.8623 0.0000
vn -0.9363 0.3511 0.0000
vn 0.7180 -0.2457 -0.6513
vn -0.7899 -0.4158 -0.4508
vn 0.7180 -0.2457 0.6513
vn -0.7899 -0.4158 0.4508
vn 0.1565 0.8623 0.4816
vn -0.2893 0.3511 -0.8905
vn 0.8413 -0.2457 0.4816
vn 0.1846 -0.4158 -0.8905
vn -0.3975 -0.2457 0.8841
vn -0.6728 -0.4158 -0.6119
vn -0.4097 0.8623 0.2976
vn 0.7575 0.3511 -0.5504
vn -0.1980 -0.2457 0.9489
vn 0.9040 -0.4158 -0.0996
vn -0.9637 -0.2457 -0.1049
vn 0.3741 -0.4158 -0.8290
vn -0.4097 0.8623 -0.2976
vn 0.7575 0.3511 0.5504
vn -0.9637 -0.2457 0.1049
vn 0.3741 -0.4158 0.8290
vn -0.1980 -0.2457 -0.9489
vn 0.9040 -0.4158 0.0996
vn 0.1565 0.8623 -0.4816
vn -0.2893 0.3511 0.8905
vn -0.3975 -0.2457 -0.8841
vn -0.6728 -0.4158 0.6119
vn 0.8413 -0.2457 -0.4816
vn 0.1846 -0.4158 0.8905
vn 0.9637 0.2457 -0.1049
vn -0.3741 0.4158 -0.8290
vn 0.4097 -0.8623 0.2976
vn -0.7575 -0.3511 -0.5504
vn 0.1980 0.2457 0.9489
vn -0.9040 0.4158 -0.0996
vn 0.3975 0.2457 0.8841
vn 0.6728 0.4158 -0.6119
vn -0.1565 -0.8623 0.4816
vn 0.2893 -0.3511 -0.8905
vn -0.8413 0.2457 0.4816
vn -0.1846 0.4158 -0.8905
vn -0.7180 0.2457 0.6513
vn 0.7899 0.4158 0.4508
vn -0.5064 -0.8623 0.0000
vn 0.9363 -0.3511 0.0000
vn -0.7180 0.2457 -0.6513
vn 0.7899 0.4158 -0.4508
vn -0.8413 0.2457 -0.4816
vn -0.1846 0.4158 0.8905
vn -0.1565 -0.8623 -0.4816
vn 0.2893 -0.3511 0.8905
vn 0.3975 0.2457 -0.8841
vn 0.6728 0.4158 0.6119
vn 0.1980 0.2457 -0.9489
vn -0.9040 0.4158 0.0996
vn 0.4097 -0.8623 -0.2976
vn -0.7575 -0.3511 0.5504
vn 0.9637 0.2457 0.1049
vn -0.3741 0.4158 0.8290
vn 0.8072 -0.0673 0.5865
vn -0.0847 0.9945 -0.0616
vn 0.4648 -0.7520 -0.4673
vn -0.3217 0.5205 -0.7909
vn -0.3008 -0.7520 0.5865
vn -0.8516 0.5205 -0.0616
vn -0.3083 -0.0672 0.9489
vn 0.0324 0.9945 -0.0996
vn 0.5881 -0.7520 0.2976
vn 0.6528 0.5205 -0.5504
vn -0.6507 -0.7520 -0.1049
vn -0.2046 0.5205 -0.8290
vn -0.9977 -0.0672 0.0000
vn 0.1047 0.9945 0.0000
vn -0.1013 -0.7520 0.6513
vn 0.7252 0.5205 0.4508
vn -0.1013 -0.7520 -0.6513
vn 0.7252 0.5205 -0.4508
vn -0.3083 -0.0672 -0.9489
vn 0.0324 0.9945 0.0996
vn -0.6507 -0.7520 0.1049
vn -0.2046 0.5205 0.8290
vn 0.5881 -0.7520 -0.2976
vn 0.6528 0.5205 0.5504
vn 0.8072 -0.0673 -0.5865
vn -0.0847 0.9945 0.0616
vn -0.3008 -0.7520 -0.5865
vn -0.8516 0.5205 0.0616
vn 0.4648 -0.7520 0.4673
vn -0.3217 0.5205 0.7909
usemtl None
s off
f 25/1/1 26/2/1 3/3/1 1/4/1
f 26/2/2 25/1/2 2/5/2 4/6/2
f 26/2/3 27/7/3 5/8/3 3/3/3
f 27/7/4 26/2/4 4/6/4 6/9/4
f 27/7/5 25/1/5 1/4/5 5/8/5
f 25/1/6 27/7/6 6/9/6 2/5/6
f 28/10/7 29/11/7 1/12/7 3/3/7
f 29/11/8 28/10/8 4/6/8 2/13/8
f 29/11/9 30/14/9 11/15/9 1/12/9
f 30/14/10 29/11/10 2/13/10 12/16/10
f 30/14/11 28/10/11 3/3/11 11/15/11
f 28/10/12 30/14/12 12/16/12 4/6/12
f 31/17/13 32/18/13 5/19/13 1/20/13
f 32/18/14 31/17/14 2/21/14 6/22/14
f 32/18/15 33/23/15 7/24/15 5/19/15
f 33/23/16 32/18/16 6/22/16 8/25/16
f 33/23/17 31/17/17 1/20/17 7/24/17
f 31/17/18 33/23/18 8/25/18 2/21/18
f 34/26/19 35/27/19 7/24/19 1/28/19
f 35/27/20 34/26/20 2/29/20 8/25/20
f 35/27/21 36/30/21 9/31/21 7/24/21
f 36/30/22 35/27/22 8/25/22 10/32/22
f 36/30/23 34/26/23 1/28/23 9/31/23
f 34/26/24 36/30/24 10/32/24 2/29/24
f 37/33/25 38/34/25 9/31/25 1/35/25
f 38/34/26 37/33/26 2/36/26 10/32/26
f 38/34/27 39/37/27 11/15/27 9/31/27
f 39/37/28 38/34/28 10/32/28 12/16/28
f 39/37/29 37/33/29 1/35/29 11/15/29
f 37/33/30 39/37/30 12/16/30 2/36/30
f 40/38/31 41/39/31 11/15/31 3/3/31
f 41/39/32 40/38/32 4/6/32 12/16/32
f 41/39/33 42/40/33 21/41/33 11/15/33
f 42/40/34 41/39/34 12/16/34 22/42/34
f 42/40/35 40/38/35 3/3/35 21/41/35
f 40/38/36 42/40/36 22/42/36 4/6/36
f 43/43/37 44/44/37 3/3/37 5/8/37
f 44/44/38 43/43/38 6/9/38 4/6/38
f 44/44/39 45/45/39 13/46/39 3/3/39
f 45/45/40 44/44/40 4/6/40 14/47/40
f 45/45/41 43/43/41 5/8/41 13/46/41
f 43/43/42 45/45/42 14/47/42 6/9/42
f 46/48/43 47/49/43 5/19/43 7/24/43
f 47/49/44 46/48/44 8/25/44 6/22/44
f 47/49/45 48/50/45 15/51/45 5/19/45
f 48/50/46 47/49/46 6/22/46 16/52/46
f 48/50/47 46/48/47 7/24/47 15/51/47
f 46/48/48 48/50/48 16/52/48 8/25/48
f 49/53/49 50/54/49 7/24/49 9/31/49
f 50/54/50 49/53/50 10/32/50 8/25/50
f 50/54/51 51/55/51 17/56/51 7/24/51
f 51/55/52 50/54/52 8/25/52 18/57/52
f 51/55/53 49/53/53 9/31/53 17/56/53
f 49/53/54 51/55/54 18/57/54 10/32/54
f 52/58/55 53/59/55 9/31/55 11/15/55
f 53/59/56 52/58/56 12/16/56 10/32/56
f 53/59/57 54/60/57 19/61/57 9/31/57
f 54/60/58 53/59/58 10/32/58 20/62/58
f 54/60/59 52/58/59 11/15/59 19/61/59
f 52/58/60 54/60/60 20/62/60 12/16/60
f 55/63/61 56/64/61 21/41/61 3/3/61
f 56/64/62 55/63/62 4/6/62 22/42/62
f 56/64/63 57/65/63 13/46/63 21/41/63
f 57/65/64 56/64/64 22/42/64 14/47/64
f 57/65/65 55/63/65 3/3/65 13/46/65
f 55/63/66 57/65/66 14/47/66 4/6/66
f 58/66/67 59/67/67 13/46/67 5/8/67
f 59/67/68 58/66/68 6/9/68 14/47/68
f 59/67/69 60/68/69 15/69/69 13/46/69
f 60/68/70 59/67/70 14/47/70 16/70/70
f 60/68/71 58/66/71 5/8/71 15/69/71
f 58/66/72 60/68/72 16/70/72 6/9/72
f 61/71/73 62/72/73 15/51/73 7/24/73
f 62/72/74 61/71/74 8/25/74 16/52/74
f 62/72/75 63/73/75 17/56/75 15/51/75
f 63/73/76 62/72/76 16/52/76 18/57/76
f 63/73/77 61/71/77 7/24/77 17/56/77
f 61/71/78 63/73/78 18/57/78 8/25/78
f 64/74/79 65/75/79 17/56/79 9/31/79
f 65/75/80 64/74/80 10/32/80 18/57/80
f 65/75/81 66/76/81 19/61/81 17/56/81
f 66/76/82 65/75/82 18/57/82 20/62/82
f 66/76/83 64/74/83 9/31/83 19/61/83
f 64/74/84 66/76/84 20/62/84 10/32/84
f 67/77/85 68/78/85 19/61/85 11/15/85
f 68/78/86 67/77/86 12/16/86 20/62/86
f 68/78/87 69/79/87 21/41/87 19/61/87
f 69/79/88 68/78/88 20/62/88 22/42/88
f 69/79/89 67/77/89 11/15/89 21/41/89
f 67/77/90 69/79/90 22/42/90 12/16/90
f 70/80/91 71/81/91 21/41/91 13/46/91
f 71/81/92 70/80/92 14/47/92 22/42/92
f 71/81/93 72/82/93 23/83/93 21/41/93
f 72/82/94 71/81/94 22/42/94 24/84/94
f 72/82/95 70/80/95 13/46/95 23/83/95
f 70/80/96 72/82/96 24/84/96 14/47/96
f 73/85/97 74/86/97 13/46/97 15/69/97
f 74/86/98 73/85/98 16/70/98 14/47/98
f 74/86/99 75/87/99 23/88/99 13/46/99
f 75/87/100 74/86/100 14/47/100 24/89/100
f 75/87/101 73/85/101 15/69/101 23/88/101
f 73/85/102 75/87/102 24/89/102 16/70/102
f 76/90/103 77/91/103 15/51/103 17/56/103
f 77/91/104 76/90/104 18/57/104 16/52/104
f 77/91/105 78/92/105 23/93/105 15/51/105
f 78/92/106 77/91/106 16/52/106 24/94/106
f 78/92/107 76/90/107 17/56/107 23/93/107
f 76/90/108 78/92/108 24/94/108 18/57/108
f 79/95/109 80/96/109 17/56/109 19/61/109
f 80/96/110 79/95/110 20/62/110 18/57/110
f 80/96/111 81/97/111 23/98/111 17/56/111
f 81/97/112 80/96/112 18/57/112 24/99/112
f 81/97/113 79/95/113 19/61/113 23/98/113
f 79/95/114 81/97/114 24/99/114 20/62/114
f 82/100/115 83/101/115 19/61/115 21/41/115
f 83/101/116 82/100/116 22/42/116 20/62/116
f 83/101/117 84/102/117 23/103/117 19/61/117
f 84/102/118 83/101/118 20/62/118 24/104/118
f 84/102/119 82/100/119 21/41/119 23/103/119
f 82/100/120 84/102/120 24/104/120 22/42/120
