<?xml version="1.0" encoding="UTF-8"?>
<svg width="1200pt" height="1200pt" version="1.1" viewBox="0 0 1200 1200" xmlns="http://www.w3.org/2000/svg">
 <path d="m967.73 1055.8 199.11-497.8c0.64844-1.5352 1.0547-3.1211 1.2969-4.7266 0.070313-0.46875 0.085938-0.92578 0.13281-1.3906 0.085937-1.043 0.097656-2.0898 0.023437-3.1211-0.035156-0.55078-0.085937-1.0938-0.16797-1.6445-0.16797-1.0664-0.43359-2.1133-0.75781-3.1445-0.14453-0.40625-0.22656-0.82813-0.37109-1.2344-0.5625-1.4141-1.2734-2.7461-2.1367-4.0195-0.046874-0.070312-0.070312-0.14453-0.12109-0.21484l-348.74-498.2c-0.12109-0.15625-0.035156-0.3125-0.15625-0.48047l0.16797-0.035156v8.2188h-0.44531c-4.8359-12-13.129-13.488-21.023-11.711 0 0.046876-0.046875-0.14453-0.085938-0.14453-0.035156 0.046875-0.11719-0.14453-0.11719-0.14453h-0.19922-0.085937c-0.035157 0-0.035157-1.8125-0.085938-1.8125l-548.02 148.54c-0.30078 0.085938-0.55078-0.22656-0.85156-0.13281-1.043 0.33594-2.0625 0.49219-3.0352 0.99609-0.64844 0.32422-1.2227 0.63672-1.8242 1.0195-0.61328 0.39453-1.2109 0.73047-1.7656 1.1875-0.52734 0.43359-1.0078 0.875-1.4883 1.3555-0.57422 0.57422-1.1172 1.1758-1.6328 1.8242-0.35938 0.46875-0.70703 0.91016-1.0195 1.4023-0.55078 0.83984-1.0078 1.7383-1.4414 2.6758-0.13281 0.27734-0.32422 0.50391-0.43359 0.79297l-197.52 498.12c-0.24219 0.60938 1.0664 1.2461 1.0664 1.8711v0.023437 6.7422 0.097656 0.023437 0.046876 0.070312c0 0.88672-0.023438 1.8008 0.14453 2.6758 0.035157 0.050781-0.14453 0.050781-0.14453 0.078125v0.097656 0.023438 0.046875 0.046875 0.023438 0.046874c0 2.293-0.55078 4.5234 0.71875 6.5391 0-0.023437-0.35938 0.046875-0.35938 0.046875 0 0.046875-0.35938 0.046875-0.35938 0.046875v0.023437l-0.53906 0.046876c0.35937 0.5625 0.43359 1.0781 0.81641 1.5977l348.59 448.31c0.023437 0.046874 0 0.070312 0.023437 0.12109 0.023437 0.023438 0 0.046875 0.023437 0.097657 0.070313 0.097656 0.16797 0.16797 0.25391 0.25391 0.28906 0.34766 0.625 0.61328 0.9375 0.9375 0.32422 0.34766 0.63672 0.68359 0.98438 0.98438 0.35938 0.32422 0.66016 0.74219 1.0312 1.0547 0.3125 0.23828 0.68359 0.39453 1.0078 0.63672 0.48047 0.32422 0.97266 0.63672 1.4766 0.91016 0.058593 0.046875 0.12109 0.097657 0.19141 0.12109 1.043 0.61328 2.1133 1.0781 3.2266 1.4766 0.50391 0.16797 0.98437 0.37109 1.5 0.51562 0.25391 0.070313 0.49219 0.21484 0.74219 0.25391 1.4766 0.32422 2.9883 0.51562 4.5 0.51562 1.1875 0 2.4258-0.14453 3.6484-0.32422l548.03-99.637c0.68359-0.12109 1.2969-0.25391 1.957-0.44531 0.16406-0.0625 0.34375 0.035156 0.5 0.035156h0.046874c0.25391 0 0.46875-0.32422 0.71875-0.42188 0.49219-0.16797 0.96094-0.40625 1.4414-0.625 0.25391-0.12109 0.52734-0.22656 0.76953-0.35938 0.20312-0.12109 0.3125-0.17969 0.39453-0.20312 0.16797-0.097656 0.27734-0.25391 0.44531-0.33594 1.6797-0.9375 3.2266-2.0898 4.5586-3.4219 0.16797-0.19141 0.28906-0.40625 0.45703-0.57422 1.3086-1.4297 2.4102-3.0234 3.2539-4.7773 0.070313-0.12109 0.19141-0.21484 0.25391-0.34766 0.046875-0.097656 0.097657-0.20312 0.13281-0.3125 0.023437-0.046875 0.035156-0.070313 0.058594-0.12109 0.09375-0.24609 0.19141-0.47656 0.29687-0.71484zm-36.395-42.254-345.67-216.09 388.88-302.43zm-369.53-249.02-131.45-482 525.82 175.3zm454.21-278 107.11 71.426-142.82 357zm53.52-13.152-55.176-36.793-73.547-147.09zm-111.02-57.613-504.83-168.27 336.56-168.28zm-559.3-186.45-77.82-25.945 285.37-77.844zm-136.18-2.5469 104.04 34.691-242.79 312.14zm128.79 69.051 130.14 477.09-433.75-86.738zm129.84 518.5-126.04 294.07-294.09-378.09zm37.906 14.793 333.91 208.71-459.16 83.508z"/>
</svg>
