<?xml version="1.0" encoding="UTF-8"?>
<svg id="Layer_2" data-name="Layer 2" xmlns="http://www.w3.org/2000/svg" viewBox="0 0 779.1 486.91">
  <path d="M70.51,289.84c-15.23,0-29-3.06-41.31-9.18-12.3-6.12-22.04-14.71-29.2-25.78l39.06-32.62c4.17,5.47,9.01,9.64,14.55,12.5,5.53,2.87,11.36,4.3,17.48,4.3,8.72,0,15.46-2.86,20.21-8.59,4.75-5.73,7.13-13.87,7.13-24.41V2.93h52.54V208.4c0,25.78-7.03,45.8-21.09,60.06s-33.86,21.39-59.38,21.39Zm100.39-2.93L263.09,2.93h33.98l92.19,283.98h-53.71l-55.47-190.82-55.47,190.82h-53.71Zm49.61-44.92v-49.02h120.7v49.02h-120.7Zm268.16,47.85c-18.75,0-34.77-3.61-48.05-10.84s-23.41-17.74-30.37-31.54c-6.97-13.8-10.45-30.47-10.45-50V92.58c0-19.66,3.48-36.36,10.45-50.1,6.96-13.74,17.09-24.25,30.37-31.54,13.28-7.29,29.3-10.94,48.05-10.94,17.71,0,32.81,3.58,45.31,10.74,12.5,7.16,22.33,17.91,29.49,32.23,7.16,14.33,11.59,32.29,13.28,53.91h-52.73c-1.04-10.16-3.09-18.55-6.15-25.2-3.06-6.64-7.03-11.65-11.91-15.04-4.88-3.38-10.64-5.08-17.29-5.08-11.33,0-20.15,3.61-26.46,10.84-6.32,7.23-9.47,17.29-9.47,30.18v104.88c0,12.89,3.16,22.92,9.47,30.08,6.31,7.16,15.14,10.74,26.46,10.74,10.03,0,18.03-3.77,24.02-11.33,5.99-7.55,9.77-18.88,11.33-33.98h52.73c-1.69,21.62-6.12,39.58-13.28,53.91-7.16,14.33-16.99,25.07-29.49,32.23-12.5,7.16-27.61,10.74-45.31,10.74Zm125.98-2.93V2.93h51.37V286.91h-51.37Zm20.12-234.18V2.93h144.34V52.73h-144.34Zm0,117.97v-49.61h127.54v49.61h-127.54Zm0,116.21v-49.8h144.34v49.8h-144.34ZM66.89,456.25l29.1-111.33h13.67l29.1,111.33,25.1-111.33h20.7l-34.67,141.99h-20.31l-26.17-99.22-27.34,99.22h-20.31L21.09,344.92h20.7l25.1,111.33Zm139.16,30.66v-141.99h19.92v141.99h-19.92Zm9.67-123.05v-18.95h81.54v18.95h-81.54Zm0,62.01v-18.95h70.8v18.95h-70.8Zm0,61.04v-18.95h81.54v18.95h-81.54Zm195.8-141.99l-43.26,84.28v57.71h-19.92v-57.71l-43.26-84.28h22.17l31.05,64.06,31.05-64.06h22.17Zm-7.81,141.99l52.34-141.99h16.99l52.34,141.99h-21.48l-39.36-114.55-39.36,114.55h-21.48Zm24.12-31.15v-18.95h74.71v18.95h-74.71Zm119.04,31.05v-141.89h18.07l69.43,109.77-2.34,2.54v-112.3h19.73v141.89h-18.26l-69.24-108.11,2.34-2.54v110.64h-19.73Zm128.32-122.95v-18.95h100.2v18.95h-100.2Zm40.14,123.05v-130.37h19.92v130.37h-19.92Z"/>
</svg>