<?xml version="1.0" encoding="UTF-8"?>
<svg id="Layer_1" data-name="Layer 1" xmlns="http://www.w3.org/2000/svg" viewBox="0 0 1075.64 1894.87">
  <defs>
    <style>
      .cls-1 {
        fill: #bb8466;
      }
    </style>
  </defs>
  <path class="cls-1" d="M414.65,1894.87c1.49-9.95-4.26-17.02-9.67-24.29-7.27-9.76-14.82-19.35-21.49-29.51-4.42-6.73-8-14.13-11.09-21.58-7.97-19.23-19.78-36.37-29.42-54.69-7.87-14.94-16.06-29.72-24.42-44.39-3.21-5.64-7.36-10.74-10.92-16.19-3.68-5.63-7.19-11.37-10.74-17.08-8.36-13.42-15.09-27.63-20.63-42.39-3.15-8.39-5.84-16.94-8.8-25.4-.36-1.03-.93-2.14-1.74-2.84-3.96-3.42-4.62-7.89-4.97-12.78-.6-8.55-3.6-16.47-7.28-24.2-2-4.21-3.5-8.7-4.8-13.18-2.43-8.39-4.57-16.86-6.81-25.3-1.37-5.19-2.83-10.35-4.05-15.57-4.17-17.89-8.18-35.83-12.38-53.71-1.59-6.77-3.83-13.4-5.3-20.2-2.04-9.4-3.66-18.89-5.42-28.35-.25-1.32,.05-2.82-.46-4-5.3-12.27-4.91-25.49-6.66-38.35-1.78-13.11-3.95-26.17-5.52-39.31-.75-6.23-.5-12.58-.68-18.87-.02-.67-.1-1.48,.22-1.99,5.36-8.34,3.77-17.95,4.45-26.95,1.59-20.91,4.95-41.44,10.06-61.75,.73-2.92,.43-6.17,.21-9.23-.68-9.63,1-18.72,5.7-27.21,1.85-3.35,3.92-6.6,5.48-10.08,1.88-4.19,2.02-8.3,.5-13.01-2.54-7.82-3.47-15.85-3.25-24.4,.31-11.94,4.6-22.7,6.84-34.03,1.6-8.12,3.1-16.33,5.68-24.16,4.99-15.11,10.52-30.05,16.18-44.93,5.43-14.27,11.69-28.24,16.81-42.61,2.69-7.56,3.72-15.69,5.48-23.57,.1-.43,.08-.9,.07-1.35-.32-8.87-.66-17.74-.95-26.61-.05-1.55-.32-3.32,.3-4.62,4.44-9.33,2.22-18.85-.3-27.76-5.7-20.13-14.18-39.25-24.02-57.77-6.33-11.92-12.88-23.75-18.44-36.02-3.66-8.07-7.25-16.35-7.02-25.74,.13-5.23,1.37-9.75,4.29-13.89,1.94-2.74,2.41-5.23,1.63-8.74-1.87-8.35-1.04-16.93-.46-25.4,.44-6.47,1.42-12.92,2.33-19.35,.76-5.44,1.32-10.65,.81-16.35-.97-10.88,.09-21.98,.75-32.96,.34-5.67,.91-10.94-3.17-15.86-4.83-5.82-4.55-13.48-5.89-20.44-1.56-8.13-2.56-16.39-3.36-24.63-.73-7.57-.9-15.19-1.26-22.79-.16-3.32-.08-6.65-.27-9.96-.7-12.29-1.47-24.58-2.21-36.86-.64-10.51-.29-21.2-4.19-31.21-2.74-7.04-6.2-13.8-9.37-20.67-5.53-12.01-14.98-21.14-23.23-31.17-4.82-5.86-9.23-12.06-13.7-18.19-.75-1.03-.77-2.56-1.31-3.78-.81-1.84-1.42-3.95-2.74-5.37-8.31-8.89-14.24-19.18-19.7-29.97-4.11-8.14-10.34-15.19-14.96-23.11-5.62-9.65-12.91-18.35-16.87-28.95-.38-1-1.06-1.96-1.8-2.76-9.65-10.5-17.37-22.22-23.28-35.18-1.36-2.98-3.26-6.01-5.68-8.15-4.61-4.07-6.46-9.68-9.46-14.64-4.04-6.72-8.21-13.37-11.92-20.27-4.87-9.06-9.77-18.14-13.85-27.55-3.64-8.39-6.43-17.18-9.14-25.93-5.17-16.68-10.21-33.4-14.94-50.2-2.95-10.48-5.08-21.19-7.86-31.73-1.82-6.91-4.31-13.65-6.22-20.55-2.63-9.51-5.97-18.98-7.21-28.69C-.23,82.59-.2,71.33,.36,60.25c.19-3.81,3.71-7.54,5.98-11.13,4.06-6.42,7.78-12.93,10.07-20.25,2.4-7.67,7.92-13.49,12.99-19.52,1-1.19,2.47-2.16,3.03-3.52C34.84,0,39.6-.49,44.82,.29c3.34,.5,6.58,1.63,9.92,2.22,13.79,2.42,27.59,4.74,41.39,7.08,12.46,2.11,24.92,4.26,37.4,6.27,7.36,1.18,14.79,1.92,22.12,3.23,7.1,1.26,14.21,2.67,21.16,4.59,17.42,4.82,34.91,9.5,52.08,15.12,16.12,5.27,31.93,11.5,47.75,17.63,17.3,6.7,34.47,13.74,51.67,20.68,4.59,1.85,9.32,3.53,13.6,5.95,3.4,1.92,6.8,2.32,10.43,2.12,3.66-.2,6.45,1.04,9.04,3.7,1.79,1.84,4.39,2.9,6.67,4.25,.57,.34,1.65,.25,1.87,.67,3.59,7.12,12.59,6.24,17.35,11.6,.51,.58,1.52,.73,2.9,1.35,1.02-6.81,2.3-13.13,2.81-19.5,.42-5.33,4.09-8.57,7.23-11.76,9.84-10,18.52-20.85,26.73-32.17,3.63-5.01,7.18-10.67,14.27-11.48,3.7-.42,7.57-.77,11.2-.18,5.58,.91,12.87-2.57,14.3-8.06,1.28-4.88,4.09-7.49,8.92-8.87,2.93-.83,5.52-2.86,8.8-4.64,1.01,.65,2.76,1.36,3.92,2.62,1.91,2.07,4.17,2.41,6.74,2.34,4.09-.12,8.16-.35,11.33,3.18,.72,.8,2.56,.92,3.85,.83,8.92-.57,17.58,.32,25.8,4.1,.4,.18,.88,.23,1.33,.25,8.77,.33,16.89,3.86,25.48,5.15,4.19,.63,8.2,2.72,12.38,3.09,5.31,.47,10.95-1.16,16.01,0,5.37,1.23,10.25,2.65,15.84,1.09,6.26-1.75,12.72-2.81,19.13-3.97,1.69-.31,3.82-.43,5.22,.32,4,2.15,8.17,3.79,11.6,7.29,5.46,5.58,11.82,10.33,18.05,15.1,1.4,1.07,3.9,1.13,5.85,1.01,5.39-.34,8.73,1.19,10.77,6.84,1.94,5.38,5.61,10.17,8.69,15.12,.55,.88,1.97,1.23,2.99,1.83,1.46,.86,3.32,1.41,4.32,2.65,6.63,8.17,13.09,16.48,19.57,24.77,1.11,1.42,2.25,2.87,3.01,4.48,1.87,4,3.57,7.51,8.56,9.24,3.78,1.31,6.58,5.25,10.02,7.74,2.91,2.1,5.93,4.3,9.24,5.55,8.92,3.37,17.43,7.34,25.64,12.23,8.53,5.08,17.73,9.03,26.64,13.48,21.45,10.74,42.74,21.81,64.4,32.13,18.37,8.75,37.2,16.54,55.75,24.92,23.93,10.81,47.83,21.74,69.51,36.71,16.34,11.28,32.39,22.97,48.51,34.57,7.14,5.13,14.12,10.48,21.18,15.71,.89,.66,1.81,1.36,2.82,1.77,9.79,3.93,17.22,15.03,17.06,25.51-.15,10.08,.57,20.09-1.89,30.17-2.93,12.05-8.91,22.41-15.29,32.73-1.41,2.28-2.8,4.56-4.16,6.87-4.42,7.51-8.9,14.99-13.21,22.55-2.28,4.01-4.26,8.19-6.39,12.28-1.46,2.79-2.97,5.55-4.45,8.32-4.09,7.69-7.67,15.71-12.44,22.96-3.43,5.22-6.32,10.57-9.24,16.05-5.48,10.27-12.02,20.02-18.61,29.65-4.9,7.17-10.49,13.89-15.97,20.66-1.96,2.42-4.43,4.44-6.76,6.54-8.09,7.33-14.89,15.78-21.98,24.02-6,6.96-12.97,13.11-19.64,19.5-4.69,4.49-9.55,8.8-14.41,13.12-2.18,1.93-5.26,3.24-6.68,5.58-3.5,5.8-9.61,8.79-13.81,13.81-4.16,4.99-8.99,9.43-13.56,14.09-1.42,1.45-2.69,3.28-4.43,4.13-6.79,3.31-10.23,9.9-15.36,14.81-6.28,6.02-11.43,13.15-18.57,18.31-.9,.65-2.12,1.25-2.52,2.16-3.15,7.15-10.66,9.96-15.52,15.5-4.84,5.51-10.91,10.04-16.81,14.53-8.38,6.38-14.66,13.94-19.43,23.53-5.81,11.68-9.9,24.04-15.68,35.6-3.47,6.94-6.69,13.63-7.47,21.27-.49,4.85-.56,9.78-.3,14.65,.15,2.71,.82,5.16-.97,7.71-.94,1.33-1.32,3.37-1.22,5.05,.36,5.94-.8,11.56-2.38,17.25-2.14,7.75-3.47,15.72-5.61,23.46-3.35,12.1-7.39,24.02-10.57,36.15-3.7,14.08-8.39,28.07-7.11,42.98,.21,2.44,.61,4.9,1.28,7.25,2.72,9.56,4.34,19.02,3.3,29.19-.61,5.94,1.25,12.57,3.54,18.28,5.2,12.92,11.34,25.47,17.12,38.15,6.06,13.29,11.95,26.67,18.33,39.81,3.33,6.86,7.6,13.26,11.35,19.93,2.2,3.92,4.53,7.82,6.21,11.96,2.7,6.65,4.86,13.51,7.34,20.25,.61,1.67,1.37,3.38,2.47,4.76,4.02,5.07,5.06,10.91,4.95,17.12-.03,2.03-.15,4.05-.12,6.08,.07,4.43-.89,8.39-4.24,11.68-2.42,2.37-3.26,5.27-1.72,8.64,8.67,19,17.16,38.09,25.96,57.03,3.7,7.95,8.17,15.54,12.01,23.43,2.55,5.24,4.34,10.83,6.9,16.06,4.74,9.67,8.43,20.27,15.05,28.51,10.23,12.73,14.64,27.68,20.45,42.19,1.07,2.68,1.69,5.63,1.99,8.51,1.86,17.59,8.57,33.79,14.26,50.31,2.62,7.61,4.26,15.57,6.1,23.43,.86,3.69,1.07,7.52,1.68,11.27,2.26,13.71,4.95,27.37,6.72,41.14,1.46,11.34,2.39,22.81,2.57,34.23,.15,9.94,.3,19.79,3.11,29.38,6.16,21,6.49,42.55,6.62,64.16,.13,22.04,.64,44.07,.85,66.11,.06,6.45,2.8,11.81,6.54,16.68,4.6,6,5.45,11.89,1.66,18.7-1.44,2.59-2.05,6.04-1.89,9.04,.43,8.29,1.45,16.55,2.27,24.83,.13,1.34,.04,2.89,.69,3.95,3.68,5.98,1.17,11.72-.74,17.3-3.63,10.61-2.8,20.72,2.57,30.48,4.98,9.03,9.93,18.08,15.17,26.97,3.14,5.33,6.91,10.2,10.96,14.98,5.04,5.94,8.72,13.01,13.02,19.58,1.59,2.43,3.13,4.92,4.95,7.18,5.93,7.37,12.27,14.43,17.89,22.01,4.27,5.76,7.97,11.99,11.4,18.29,2.03,3.72,3.21,7.97,1.72,12.37H414.65ZM701.86,113.17c.08,.18,.13,.39,.25,.54,.07,.08,.26,.07,.39,.09-.24-.18-.48-.36-.72-.55-1.71-1.74-3.43-3.48-5.14-5.22-.34,.41-.67,.82-1.01,1.24,2.08,1.3,4.15,2.6,6.23,3.9Zm-21.8,474.12l.04,.04c4.14-4.83,11.13-6.69,14.33-12.8-4.57-4.8-9.77-4.32-14-1.67-5.27,3.3-10.83,7.21-14.14,12.24-3.27,4.96-7.18,9.04-10.96,13.44-5.15,6-11.64,12.22-5.51,21.33,.11,.17,.15,.46,.1,.66-1.27,4.63,1.79,7.26,4.9,9.47,4.56,3.23,9.42,6.05,14.23,8.92,.59,.35,1.64-.06,3.11-.15v-10.61c2.09,2.08,3.69,2.93,4.01,4.12,1.43,5.32,5.86,6.83,10.15,8.89,4.06,1.94,7.43,1.32,10.63-1.41,1.54-1.31,3.22-2.62,4.31-4.27,8.05-12.21,15.98-24.5,23.91-36.79,1.58-2.44,1.7-5.02,.34-7.69-4.12-8.04-16.24-13.32-24.89-10.6-6.9,2.16-13.71,4.58-20.56,6.89ZM336.92,176.55c-1.12-.1-2.29-.02-3.35-.34-9.94-3.01-19.88-6.03-29.79-9.16-6.45-2.04-13.41-3.3-19.1-6.65-7.42-4.36-14.87-6.06-23.22-5.42-3.16,.24-6.35-.08-9.52,.06-1.53,.07-3.37,.16-4.49,.99-6.99,5.19-15.11,6.59-23.47,7.54-4.49,.51-9.06,1.05-13.35,2.36-5.57,1.7-6.73,7.42-2.76,11.55,.94,.98,1.95,1.89,2.93,2.82,21.84,20.65,40.96,43.41,53.41,70.91,7.83,17.3,17.51,33.54,26.81,50.02,4.36,7.74,10.15,14.15,17.31,19.64,8.23,6.31,15.83,13.44,23.67,20.26,9.37,8.16,18.31,16.87,28.15,24.43,15.84,12.19,30.03,26.06,43.97,40.22,4.73,4.8,9.27,9.9,11.01,16.76,.76,3,3.15,4.58,6.07,4.47,3.29-.12,4.99,1.51,6.44,4,.78,1.34,1.78,2.56,2.96,4.23,4.04-3.86,8.3-2.43,12.64-.93,3.74,1.29,7.57,2.34,11.87,3.66,.61-3.63,1.08-6.48,1.58-9.33,1.52-8.81,2.26-17.88,10.54-23.9,1.42-1.04,2.18-3.96,2.06-5.94-.74-11.87-4.2-22.82-12.15-32.06-2.75-3.2-5.82-6.26-7.89-9.86-1.72-3.02-3.64-5.3-6.51-7.33-4.49-3.17-8.69-8.01-8.2-13.2,.88-9.35-4.03-14.56-10.23-19.8-3.52-2.98-6.64-6.43-10.54-10.26,3.8-4.89,6.42-9.93,10.5-13.13,7.11-5.57,9.55-12.79,9.88-21.03,.31-7.71,.32-15.48-.26-23.17-.52-7-.61-13.72,2.4-20.29,.78-1.71,.73-4.03,.42-5.96-1.14-6.96-2.56-13.88-3.97-21.34-2.06,1.17-3.9,2.45-5.93,3.29-2.02,.84-4.29,1.88-6.35,1.72-8.29-.65-16.49-1.42-23.94-6.09-3.88-2.43-8.75-4.26-13.28-4.52-10-.57-19.12-2.65-27.06-9.08-1.62-1.31-4.16-1.47-6.26-2.21-3.82-1.35-7.67-2.65-11.4-4.22-.53-.22-.48-1.82-.71-2.79q2.13-2.96-.1-6.22c-.3,2.08-.53,3.69-.76,5.3Zm45.89,291.2c-.29-.61-.59-1.22-.88-1.83,1.1-.96,2.05-2.26,3.33-2.83,4.31-1.95,8.63-4,13.15-5.33,5.1-1.5,8.96-4.28,11.51-8.78,.71-1.25,1.42-3.59,.8-4.3-3.98-4.59-2.13-9.68-2.18-14.77-.08-7.94-1.75-15.63-7.91-21.52-3.87-3.7-7.72-7.41-11.66-11.04-5.57-5.13-11.03-10.39-16.84-15.25-9.84-8.22-20.08-15.96-29.84-24.26-12.01-10.22-23.39-21.18-35.61-31.14-12.3-10.02-21.26-22.29-28.16-36.3-1.47-2.99-3.18-5.87-4.74-8.82-4.67-8.86-10.99-16.93-12.96-27.09-.33-1.71-1.36-3.33-2.29-4.86-3.35-5.52-6.73-11.02-10.23-16.45-4.25-6.61-8.26-13.43-13.07-19.63-4.64-5.99-10.06-11.39-15.32-16.88-4.46-4.65-9.38-8.88-13.7-13.64-2.5-2.75-4.99-5.97-6.04-9.42-.79-2.61-2.03-4.27-3.83-5.95-2.04-1.89-3.96-3.9-6.41-6.34,5.8-1.63,8.27,2.98,12.4,3.9,3.94-4.07,8.97-5.2,14.59-5.81,9.59-1.05,19.39-1.86,27.66-7.95,1.67-1.23,4.32-1.62,6.5-1.57,7.21,.16,14.42,.55,21.6,1.17,2.37,.21,4.76,1.18,6.96,2.19,3.49,1.6,6.64,4.08,10.25,5.2,14,4.35,28.13,8.31,42.46,12.48,.51-.48,1.11-1.15,1.81-1.68,5.25-3.91,8.86-2.45,9.71,3.91,.2,1.51,.44,3.02,.72,4.91,11.45,1.17,22.7,1.97,33.59,5.25,4.73,1.43,9.39-.13,13.02-3.93,1.18-1.23,2.78-2.07,4.04-2.98,4.92,3.45,10.15,3.62,14.04,.76,3.93-2.89,4.81-7.15,2.71-12.62-.56-1.44-1.49-3.17-1.13-4.46,1.45-5.27-1.66-9.41-2.68-14.09-2.04-9.35-10.71-12.88-15.44-19.73-5.17-1.46-8.46-7.08-14.59-6.46-.56,.06-1.22-.5-1.78-.85-5.3-3.37-10.52-6.85-15.89-10.1-6.22-3.77-18.09-3.24-23.18,1.1-6.51,5.54-12.82,11.29-19.26,16.91-1.18,1.03-2.45,1.99-3.81,2.77-5.68,3.25-11.39,6.44-17.13,9.57-1.12,.61-2.42,.88-4.32,1.54,11.32-9.43,21.89-18.16,32.35-27.02,2.22-1.88,4.36-4.02,5.95-6.42,2.41-3.67,5.16-5.98,9.89-5.88,4.35,.1,6.99-2.77,8.79-6.4,1.19-2.41,.68-4.56-1.89-5.56-6.43-2.51-12.96-4.79-19.44-7.18-7.77-2.86-15.6-5.56-23.28-8.64-10.79-4.33-21.42-9.02-32.19-13.39-6.43-2.61-13.02-4.84-19.5-7.33-6.08-2.34-11.98-5.25-18.2-7.1-9.47-2.83-18.62-6.54-28.4-8.63-15.17-3.25-30.05-7.82-45.06-11.77-2.39-.63-4.86-1.03-7.32-1.35-6.7-.87-13.47-1.37-20.12-2.49-15.79-2.67-31.44-6.34-47.31-8.2-11.1-1.31-22.01-3.25-32.92-5.43-3.74-.75-7.53-1.38-11.33-1.74-1.45-.14-3.55,.13-4.4,1.07-4.03,4.47-8.44,8.84-11.39,13.99-4.78,8.34-8.46,17.3-12.74,25.93-1.27,2.56-.78,4.73,.48,7.01,1.47,2.66,2.21,5.33-.85,8.48-1.99-2.04-3.76-3.86-5.8-5.95-.71,1.15-1.69,2.02-1.76,2.95-.63,8.82-1.97,17.79-.48,26.48,2.37,13.85,5.75,27.55,9.05,41.23,1.25,5.18,3.83,10.03,5.16,15.2,3.51,13.6,6.42,27.36,10.05,40.93,3.63,13.57,9.46,26.45,12.68,40.22,2.01,8.61,4.68,17.41,9.03,25.02,3.98,6.97,4.58,15.61,10.92,21.34,.69,.62,.55,2.1,.92,3.15,.59,1.68,.99,3.52,1.97,4.96,5.66,8.29,11.44,16.48,15.22,25.86,.39,.96,1.36,1.68,2.04,2.52,3.17,3.88,7,7.42,9.31,11.75,2.6,4.88,4.41,10.18,7.68,14.76,2.42,3.4,4.75,6.86,7.1,10.31,1.87,2.76,3.64,5.6,5.59,8.3,1.52,2.12,3.49,3.95,4.85,6.16,5.01,8.15,9.9,16.38,14.74,24.64,2.27,3.87,3.8,8.28,6.58,11.71,6.82,8.41,12.14,17.69,17.17,27.16,2.07,3.88,5.96,6.77,6.37,11.54,6.39,3.23,8.98,9.11,11.03,15.4,.13,.39,.56,.7,.9,1,3.38,3.04,6.07,6.5,7.76,10.82,.78,1.99,2.48,3.65,3.91,5.35,4.92,5.83,9.45,12.08,15,17.24,4.09,3.81,4.95,9.01,8.01,13.13,6.41,8.61,9.89,18.58,12.15,28.81,1.72,7.8,2.12,15.92,2.69,23.93,.71,10,.91,20.03,1.48,30.04,.2,3.55,1.12,7.07,1.27,10.62,.24,5.32,.1,10.66,.1,15.99,.02,16.68,3.58,32.95,6.08,49.32,.65,4.24,3.14,8.19,4.92,12.63,6.42-9.04,11.98-17.52,18.22-25.48,6.95-8.87,14.37-17.39,21.86-25.82,11.56-13,22.74-26.38,31.86-41.12,10.49-16.94,22.38-32.62,36.29-46.89,4.23-4.34,7.62-9.46,11.55-14.1,8.15-9.61,16.38-19.15,24.62-28.69,4.42-5.11,9.03-10.07,13.32-15.29,.78-.95,.42-2.84,.59-4.29-1.45-.12-2.97-.57-4.33-.28-2.99,.64-5.89,1.67-8.82,2.54Zm431.18,1422.19c-.14-5.57-1.83-9.79-5.66-13.03-5.09-4.3-8.5-9.63-11.53-15.57-3.06-6-5.97-12.43-13.07-15.58-4.32-1.92-6.54-5.66-5.95-11.02,.25-2.29-1.69-4.89-2.84-7.25-2.05-4.19-4.78-8.14-6.29-12.5-2.42-7.01-4.34-14.13-8.46-20.48-3.41-5.25-6.37-10.79-9.48-16.23-.55-.96-1.18-2.05-1.22-3.09-.18-4.56-2.68-7.51-6.39-9.7-3.33-1.97-4.29-4.67-3.78-8.55,.29-2.18-.37-5.32-1.86-6.72-3.29-3.1-5.2-6.65-6.43-10.84-.36-1.24-1.16-2.84-2.2-3.31-7.22-3.3-10.66-9.66-14.4-16.06-1.52-2.6-3.28-4.81-2.83-7.91,.63-4.3-.75-7.93-3.28-11.33-1.48-1.99-2.53-4.29-4.03-6.25-2.04-2.65-3.12-5.4-2.31-8.77,.79-3.3-.37-6.02-2.38-8.76-3.76-5.13-6.46-10.61-6.36-17.39,.05-3.68-1.41-7.49-2.73-11.05-2.88-7.78-6.93-15.22-8.96-23.19-2.08-8.13-8.37-15.07-6.95-24.19,.18-1.15-.67-2.64-1.42-3.72-2.17-3.12-2.62-6.48-2.59-10.22,.04-4.75-.65-9.42-5.51-12.29-1.1-.65-1.86-2.41-2.16-3.78-1.78-8.15-1.05-16.98-6.94-23.99-.67-.79-.87-2.1-.98-3.19-.91-8.84-8.12-15.52-8.47-24.62-.07-1.79-1.77-3.6-2.95-5.24-2.23-3.09-4.85-5.93-6.91-9.12-4.6-7.12-13.01-9.74-20.98-6.33-.76,.32-1.69,.26-2.46,.37q-2.17-4.98-.28-8.83c3.05-6.24,.92-10.33-6.08-10.28-5.58,.04-11.24,.96-16.71,2.15-7.27,1.59-14.37,3.89-21.58,5.76-4.14,1.07-8.57,1.35-12.49,2.92-7.96,3.19-15.6,7.16-23.5,10.53-5.16,2.2-10.54,3.87-15.8,5.83-3.79,1.41-7.87,2.41-11.23,4.52-2.24,1.41-4.37,4.28-4.9,6.83-1.21,5.84-.13,11.61,3.21,16.8,1.94,3.02,3.88,6.06,5.53,9.23,2.58,4.94,2.03,6.82-2.95,11.63-5.85-2.97-5.93-11.8-12.92-13.35-6.94,3.04-8.75,9.98-13.05,15.23-1.38-2.23-1.95-4.25-2.55-6.26-1.9-6.4-5.89-7.62-10.1-2.42-4.47,5.52-9.49,10.17-15.39,14.05-1.47,.97-2.6,2.51-3.72,3.92-6.16,7.69-13.31,12.64-23.98,10.04-6.01-1.46-10.37,1.32-13.68,6.45-2.3,3.56-5.34,6.65-8.04,9.96-1.56,1.92-3.56,3.66-4.53,5.84-1.9,4.27-5.03,5.49-9.29,4.84-2-.3-4.09-.49-5.93-1.25-6.72-2.78-12.42-.79-17.66,3.42-2.29,1.84-4.33,3.97-6.55,5.9-13.49,11.73-22.84,26.68-32.67,41.27-3.34,4.96-5.79,10.26-6.4,16.15-.7,6.88-2.11,13.9,.54,20.67,5.93,15.18,17.73,26.46,26.88,39.51,.25,.36,.66,.61,1,.91,6.89,6.03,12.63,13.07,16.31,21.37,5.41,12.22,15.5,21.36,21.44,33.19,.58,1.16,1.66,2.15,2.7,3,5.08,4.14,7.98,9.71,10.09,15.66,2.49,6.98,4.28,14.21,8.67,20.42,.87,1.23,.97,2.98,1.63,4.39,2.19,4.64,3.82,9.72,6.89,13.71,3.37,4.39,6.93,8.6,10.26,13.07,6.46,8.7,13.13,17.11,16.89,27.38,1.82,4.97,4.86,6.9,10.65,6.89,117.73-.21,235.46-.16,353.18-.16,2.23,0,4.45,0,6.87,0ZM952.23,364.92c-1.62,1.36-3.35,2.62-4.83,4.12-1.68,1.71-4.13,3.46-4.49,5.51-.77,4.35-3.48,6.16-7.09,7.22-3.05,.9-4.77,2.73-6.36,5.45-1.63,2.77-4.04,5.45-6.77,7.13-2.91,1.79-5.57,3.27-7.51,6.35-1.46,2.32-4.29,3.81-6.58,5.58-2.13,1.65-4.42,3.09-6.52,4.78-8.86,7.13-14.55,16.96-21.78,25.46-4.48,5.26-8.19,11.18-12.8,16.31-5.51,6.14-11.58,11.78-17.45,17.6-5.09,5.05-9.56,10.61-15.39,15.06-4.52,3.45-7.6,8.74-11.36,13.19-1.88,2.23-3.9,4.34-5.73,6.6-5.07,6.32-10.32,12.43-18.16,15.54-3.36,1.33-5.57,3.29-6.36,7.15-.58,2.8-2.53,5.32-3.86,7.96l-1.35-.22c-.2-5.91-2.68-10.62-7.13-15.49-2.28,7.36-7.97,12.16-7.31,20.48-8.74-3.89-15.46-.49-21.71,4.32-1.68-1.78-2.76-3.26-4.16-4.32-2.35-1.77-6.73-1.62-8.24,.02-1.57,1.7-1.03,5.66,1.43,7.9,1.26,1.14,3.11,1.62,4.61,2.53,1.43,.87,3.27,1.63,4.02,2.95,3.35,5.9,7.61,10.44,13.73,10.92,2.14,5.11,3.79,9.5,5.8,13.71,1.45,3.03,3.57,5.74,5.05,8.75,2.89,5.85,5.47,11.85,8.33,17.71,1.65,3.39,3.16,7.23,8.55,6.07,.64-2.04,1.28-4.04,2.06-6.53,2.19,1.19,3.86,2.1,4.98,2.7,2.42-.99,4.2-2.2,6.08-2.38,3.76-.36,7.57-.21,11.36-.14,1.08,.02,2.46,.15,3.19,.8,3.18,2.83,6.51,2.33,10.2,1.27,1.46-.42,3.58-.08,4.78,.78,.6,.43,.24,3.02-.43,4.22-1.8,3.21-2.45,6.35-.43,9.56,2.85,4.53,5.3,8.95,1.36,14.16-.55,.72-.04,2.19-.13,3.3-.16,1.99-.49,3.97-.6,5.96-.1,1.68-.63,4.4,.14,4.85,1.49,.9,3.98,1.17,5.65,.57,3.17-1.14,6.74-2.94,7.05-6.63,.45-5.21,1.02-9.81,7.05-11.47,.5-.14,.78-1.06,1.19-1.59,3.19-4.18,6.77-7.7,12.33-8.74,1.31-.24,2.65-1.67,3.48-2.89,2.39-3.47,4.83-6.96,6.72-10.71,4.29-8.52,11.71-13.43,19.86-17.52,1.76-.88,4.05-1.85,5.78-1.46,5.31,1.21,8.23-1.78,9.23-5.78,1.35-5.37,5.05-7.62,9.34-9.84,2.79-1.44,7-2.6,7.83-4.86,1.81-4.97,5.1-7.34,9.5-9.26,1.37-.6,2.51-1.94,3.5-3.15,2.85-3.47,5.45-7.15,8.37-10.55,3.62-4.22,6.99-8.85,11.35-12.18,4.59-3.5,8.16-6.83,6.62-13.18,2.22,.17,3.85,.29,5.44,.41,.17-.93,.42-1.4,.3-1.76-2.1-6.66-.83-8.89,5.68-10.22,1.22-.25,2.74-.82,3.39-1.74,1.92-2.74,3.99-5.57,5.03-8.68,1.5-4.49,3.87-8.01,7.77-10.64,2.81-1.89,4.39-4.53,4.22-7.98-.19-3.8,1.95-6.72,3.24-10.04,2.97-7.58,10.86-13.06,9.48-21.01,3.48-3.45,6.12-6.1,8.8-8.71,4.73-4.61,7.79-10.2,10.65-16.1,2.99-6.16,5.65-12.51,9.92-18.09,3.5-4.58,5.94-9.96,8.95-14.92,4.2-6.93,10.75-12.75,10.21-21.91-.06-.94,.84-2.08,1.56-2.9,6.74-7.65,8.11-16.78,7.69-26.48-.11-2.5-.44-4.49-2.41-6.59-2.56-2.74-4.37-6.34-1.33-10.25,.61-.78,1.19-2.45,.79-3.01-2.97-4.15-5.72-8.64-9.46-12.01-3.95-3.56-9.1-5.76-13.42-8.96-16.46-12.19-31.47-26.28-49.3-36.7-9.92-5.79-19.56-12.04-29.34-18.07-5.36-3.3-10.53-6.98-16.14-9.77-12.07-5.99-24.34-11.6-36.59-17.21-5.95-2.72-12.06-5.1-18.09-7.65-6.14-2.59-12.34-5.05-18.39-7.84-9.59-4.43-19.09-9.06-28.58-13.68-5.05-2.46-10.02-5.1-15.04-7.63-7.86-3.96-15.75-7.88-23.61-11.84-3.4-1.71-6.74-3.53-10.13-5.26-11.61-5.93-23.21-11.86-34.85-17.74-6.22-3.14-12.37-6.47-18.79-9.15-6.3-2.63-12.1-7.25-19.67-5.81-.58,.11-1.49-.18-1.88-.62-3.27-3.65-7.59-3.18-11.89-3.4-8.02-.41-10.71,2.68-8.68,10.39,1.37,5.19,2.65,10.4,3.99,15.6,1.73,6.72,5.24,8.56,12.43,6.71,1.24-.32,2.9-.59,3.9-.04,6.61,3.64,12.57,8.75,20.79,8.54,2.74,5.51,9.5,6.47,12.9,11.24,.52,.73,.98,1.97,1.6,2.07,4.61,.71,6.75,5.13,10.56,6.82,6.55,2.89,9.26,9.74,14.9,13.52,.65,.44,.77,1.6,1.28,2.32,1.65,2.32,3.3,4.65,5.08,6.87,1.4,1.75,3.25,3.18,4.45,5.05,2.82,4.38,6.64,7.47,11.56,8.91,3.11,.91,4.7,3.1,6.73,5.25,5.52,5.83,10.95,11.9,18.71,15.02,3.26,1.31,5.84,3.75,5.27,7.07-1.35,7.88,6.95,12.61,6.16,20.19-.07,.62,1.68,1.35,2.44,2.16,1.82,1.93,4.42,3.67,5.13,5.97,1.53,4.97,4.99,8.19,8.42,11.63,4.11,4.13,8.16,8.32,12.12,12.59,5.32,5.73,10.54,11.55,15.79,17.34,1.5,1.65,3.08,3.24,4.43,5.01,5.81,7.6,11.44,15.33,17.33,22.86,5.81,7.42,11.82,14.68,17.85,21.93,.74,.89,2.09,1.28,3.65,2.2,.47-1.83,.65-3.1,1.12-4.26,.48-1.16,1.08-3.01,1.91-3.18,5.66-1.14,11.01-4.37,17.99-1.5Zm-248.36-60.3c.74-2.18,1.26-3.57,1.67-5,.54-1.9,1.7-3.97,1.36-5.72-1.61-8.19-.14-16.08,1.43-24.04,.37-1.85,.5-4.55-.55-5.73-3.47-3.91-3.68-8.71-4.17-13.27-.65-6-1.32-12.62,3.5-17.26,6.24-6.02,5.87-13.18,4.65-20.43-.93-5.5-2.71-10.91-4.6-16.18-2.09-5.83-3.3-11.62-2.47-17.83,.59-4.38-.95-8.12-3.26-12.03-3.04-5.14-4.84-11.01-7.12-16.58-.24-.59-.45-1.44-.21-1.96,2.07-4.46-.46-7.68-3.27-10.88,.72-.94,1.23-1.65,1.79-2.31,1.35-1.59,1.66-3.23,.07-4.78-1.87-1.82-3.17-.4-4.58,.86-.59,.53-1.55,.66-2.46,1.01-1.16-1.06-2.29-1.84-3.1-2.87-4.72-6.05-9.11-12.42-17.34-14.32-1-.23-1.91-1.21-2.67-2.01-1.92-2.03-4.16-2.52-6.81-1.82-3.74,.98-7.21,.27-10.33-1.95-3.8-2.71-7.56-5.49-11.73-8.54,1.33-2.31,2.93-4.51,3.9-6.96,.86-2.19,1.35-4.65,1.39-7,.04-2.84-.64-5.69-.86-8.55-.24-3.08-2.21-5.46-4.79-5.52-2.79-.06-5.1,2.75-4.92,6.09,.05,.89,.42,1.75,.5,2.64,.63,6.63,1.22,13.26,1.87,20.36-6.03,0-11.61,.07-17.19-.07-1.02-.03-2.19-.75-3-1.47-3.5-3.12-7.37-2.83-11.5-1.66-1.69,.48-3.77,1.03-5.25,.47-4.75-1.8-9.28-1.17-14.01-.06-3.28,.77-6.75,1.35-10.08,1.17-5.05-.27-8.9,1.07-11.16,5.93-1.36-.98-2.42-1.75-3.52-2.55-3,1.54-6.01,3.05-8.99,4.62-9.69,5.12-9.94,5.63-8.33,16.33,.07,.44,.09,.9,.19,1.34,1.09,4.92,4.77,6.47,8.29,2.85,3.05-3.14,5.13-7.25,7.36-11.1,1.63-2.82,2.81-5.9,4.18-8.86,.57,.1,1.15,.21,1.72,.31,.21,2.31,.86,4.68,.54,6.91-.55,3.76-1.64,7.44-2.63,11.12-1.93,7.24-6.93,11.87-13.27,15.47-2.86,1.62-5.03,1.42-7.19-1-1.11-1.25-2.46-2.29-3.71-3.43-3.99,2.9-3.2,6.05-1.3,8.67,2.22,3.05,5.3,5.49,7.68,8.44,1.13,1.4,1.51,3.39,2.22,5.11-1.63,.48-3.25,1.01-4.9,1.42-.39,.1-.88-.15-1.54-.29-.85-1.38-1.57-3.08-2.75-4.34-1.57-1.67-5.19-1.44-6.02,.26-1.07,2.21-.24,3.97,1.96,4.96,1.39,.62,2.89,.98,4.87,1.63-.32,4.37-.62,8.56-.93,12.86,4.22,2.8,10.4,4.03,17.2,2.73,4.33-.83,8.12-.52,11.22,2.82,2.81,3.03,5.94,5.39,10.05,6.58,1.37,.4,2.31,2.26,3.68,3.71-3.03,2.72-5.67,4.69-9.02,3.87-3.9-.96-7.62-2.61-11.42-3.95-1.67-.58-3.35-1.58-5.03-1.59-10.87-.09-21.75-.14-32.61,.22-3.29,.11-6.68,1.2-9.77,2.45-4.04,1.64-5.68,4.41-4.8,7.15,1.09,3.38,3.92,4.11,7.06,3.99,7.69-.3,15.5,.04,23.04-1.18,12.89-2.08,22.49,2.89,30.58,12.05,.97,1.1,1.75,2.74,1.84,4.18,.26,3.75,.09,7.52,.09,11.6-4.39,.88-7.46,3.26-9.82,7.27-1.12,1.9-4.46,2.9-6.98,3.47-1.54,.35-3.45-.87-6.48-1.76,2.89-2.05,4.97-2.86,5.92-4.37,1.06-1.7,1.61-4.11,1.35-6.07-.12-.89-2.81-2.17-4.2-2.02-2.73,.29-4.72-.13-6.65-2.2-2.08-2.23-4.26-2.09-5.97,.81,1.82,4.34,6.36,2.81,9.19,4.27-.01,5.83-.4,6.81-3.73,6.25-4.73-.79-9.32-1.41-14.02-.06-.55,.16-1.39-.17-1.92-.52-3.74-2.49-7.84-4.62-11.07-7.66-6.87-6.46-13.29-13.39-19.9-20.13-.32-.32-.64-.64-1-.91-4.06-3.17-8.57-2.18-10.44,2.64-.95,2.45-1.3,5.24-1.37,7.88-.27,9.89-.24,19.8-.47,29.69-.06,2.53-.69,5.05-1.11,7.94-7.52-5.17-11.48-5.96-14.68-2.95-1.08,1.01-1.97,2.62-2.15,4.06-.24,1.82,.33,3.74,.5,5.18,2.25,.32,3.7,.52,5.18,.73,.48,3.88-1.36,6.35-3.39,8.84-3.26,4.03-4.56,8.95-3.89,13.84,1.28,9.32,3.17,18.57,5.07,27.8,2.24,10.92,8.2,15.3,19.18,14.51,4.83-.35,6.49,.75,7.95,5.37,.4,1.28,.8,2.59,.97,3.92,1.54,12.74,1.61,25.46,.72,38.3-.57,8.17-1.9,16.57,.68,24.77,.35,1.13,.21,2.83-.43,3.77-3.93,5.73-2.39,11.51-.64,17.41,1.07,3.63,2.19,7.3,2.68,11.03,.44,3.31,1.78,5,4.97,6.32,6.42,2.68,12.78,5.68,18.72,9.27,3.34,2.02,5.76,5.51,8.64,8.28,1.28,1.23,2.6,3.17,4.05,3.33,7.39,.79,12.77,5.58,18.8,8.93,8.29,4.6,16.69,8.86,25.36,12.71,6.79,3.01,13.25,6.75,20.07,9.7,9.94,4.3,20.04,8.27,30.13,12.22,4.42,1.73,8.95,3.2,13.52,4.49,3.96,1.11,6.33-.37,6.74-4.28,.61-5.79,.63-11.63,1.28-17.41,1.24-11.11,2.69-22.2,4.17-33.28,.59-4.41,1.39-8.8,2.28-13.16,.35-1.7,1.05-3.37,1.85-4.92,.93-1.78,2.48-3.28,3.19-5.12,4.24-10.9,8.84-21.7,12.24-32.87,1.82-5.98,4.41-11.22,7.94-16.2,1.17-1.66,2.4-3.28,3.46-5.01,6.08-9.89,11.36-20.01,9.71-32.23-.24-1.75,.07-3.59,.26-5.38,.65-6.01,3.18-9.58,9.05-10.04,8.03-.63,10.72-6.78,14.04-12.07,1.72-2.73,3.53-6.19,2.67-9.24-4.59-.79-8.47-1.45-12.96-2.22Zm46.92,190.23c-.06,8.83-3.4,17.13-1.74,25.96,.58,3.08,.91,5.78,4.18,6.96,3.17,1.15,6.32,.03,8.82-2.82,4.1-4.69,8.7-8.52,15.5-8.3,4.24,.13,8.49,.09,12.73,.36,4.73,.3,9.11-.59,12.52-3.88,4.18-4.03,8.03-8.41,12.01-12.65,11.65-12.42,23.01-25.11,35.01-37.19,11.11-11.19,21.55-22.88,31.11-35.39,5.01-6.56,9.68-13.56,15.63-19.19,7.13-6.75,15.36-12.36,23.29-18.24,5.5-4.08,7.09-8.63,3.48-14.39-3.2-5.1-7.48-9.51-10.9-14.48-14.81-21.57-32.95-40.4-50.2-59.95-3.24-3.67-8.13-6.07-10.81-10.02-4.86-7.16-10.12-13.98-15.49-20.73-3.92-4.92-7.88-9.84-12.25-14.36-7.21-7.46-16.14-12.24-26.36-14.13-7.51-1.39-15.04-3.08-22.85-.97-3.91,1.05-8.24,1.1-11.74-1.65-3.54-2.77-7.57-2.68-11.66-2.6-3.69,.08-6.43,1.23-7.53,5.31-.45,1.65-2.22,3.87-3.71,4.16-4.38,.84-8.93,.88-13.41,1.16-2.2,.14-4.49-.18-6.59,.33-1.16,.28-2,1.84-2.99,2.83,1.02,.94,1.96,2.58,3.08,2.72,7.41,.87,10.99,6.41,11.6,12.21,.95,8.97,2.46,18.44-2.65,27.03-.44,.74-.89,1.81-.68,2.53,1.7,5.56-1.13,10.59-1.89,15.83-.85,5.88-3.39,11.32-7.89,15.37-4.16,3.75-8.7,7.11-13.28,10.36-1.7,1.21-3.82,1.95-3.45,4.4,.55,3.73,.59,7.88,2.4,10.96,1.52,2.58,5.07,4.31,8.07,5.61,2.91,1.26,4.54,2.97,4.54,5.97,0,4.7-.33,9.39-.39,14.09-.12,10.61-1.97,21.43,3.88,31.35,.76,1.28,.95,3.01,1.03,4.55,.5,9.64,1.09,19.27,1.27,28.92,.18,9.29,5.35,20.56,12.52,26.94,5.7,5.06,11.21,10.35,16.68,15.65,1.59,1.54,2.85,3.43,4.12,5.26,.3,.44,.05,1.26,.05,2.15-1.65,.64-3.25,1.26-5.03,1.96Zm5.61,300.04c-.44-10.35,.68-19.21-5.88-26.73-4.45-5.09-8.79-10.32-12.68-15.83-9.82-13.91-22.25-24.58-37.28-32.78-14.87-8.11-29.13-17.33-43.71-25.99-10.48-6.22-20.94-12.49-31.6-18.42-8.68-4.83-17.73-9-26.44-13.79-13.27-7.31-26.24-15.1-41.42-18.19-11.79-2.4-23.61-4.08-35.64-4.51-6.56-.24-13.1-.77-19.65-1.15-9.04-.52-18.07-1.22-27.12-1.47-9.24-.25-18.5-.06-27.75-.06-13.82,0-27.65-.21-41.46,.09-6.75,.15-13.62,.6-20.17,2.07-24.28,5.45-48.3,11.85-71.77,20.2-12.01,4.27-23.3,9.61-33.81,16.91-13.34,9.27-24.04,21.15-35.05,32.79-1.38,1.46-2.61,3.19-3.41,5.01-.65,1.5-1.15,3.53-.65,4.95,1.01,2.9,.45,5.11-1.13,7.59-1.04,1.63-1.5,3.72-1.84,5.67-.96,5.52-2.27,11.05-2.43,16.61-.26,9.29,.26,18.6,.49,29.38,3.49-2.29,5.7-3.7,7.86-5.18,4.65-3.19,9.07-6.77,13.95-9.56,15.28-8.77,30.59-17.54,46.19-25.74,7.76-4.08,16.01-7.44,24.35-10.22,21.02-7.01,42.2-13.55,63.35-20.18,12.08-3.79,24.17-7.52,36.33-11.05,19.98-5.81,39.94-11.69,60.04-17.04,11.56-3.07,23.29-5.78,35.11-7.52,14.53-2.14,29.29-2.72,43.37-7.44,3.39-1.14,5.79,.57,7.16,3.52,2.44,5.25,6.93,7.17,12.18,6.86,8.45-.5,16.07,1.65,23.53,5.33,4.44,2.19,9.24,3.67,13.85,5.55,16.83,6.85,32.9,14.96,47.07,26.54,9.27,7.57,18.82,14.83,28.57,21.77,10.54,7.51,20.6,15.59,29.08,25.28,6.8,7.77,12.67,16.36,18.79,24.7,2.71,3.7,4.7,7.95,9.63,12.02Zm-127.19-237.13c1.28,2.9,2.31,5.25,3.33,7.55,4.06,.53,6.79-1.64,9.64-3.38,3.2-1.95,6.36-2.53,10.27-2.07,5.32,.63,10.8,.09,16.2-.28,1.71-.12,3.98-1.27,3.03-3.48-.51-1.19-3.09-2.64-4.1-2.27-4.69,1.7-8.36-.06-12.05-2.47-1.3-.84-2.63-1.72-4.07-2.23-1.96-.69-4.03-1.03-6.02-1.51-.69,2.51,1.29,5.74-3.16,5.1-.16-2.34-.32-4.64-.46-6.64-4.96-2.56-9.91,1.55-14.78-.88,.85-1.1,1.19-1.69,1.67-2.14,.66-.61,1.51-1.03,2.13-1.67,2.37-2.41,2.35-4.16-.26-6.09-1.25-.93-2.75-1.54-4.2-2.17-7.67-3.34-15.29-6.81-23.05-9.92-8.18-3.28-16.46-6.33-24.79-9.22-1.72-.6-4.46-.78-5.58,.17-.95,.8-.63,3.64-.17,5.4,.99,3.72,2.44,7.31,3.97,11.74-1.13-.7-1.38-.78-1.5-.95-.52-.74-.99-1.5-1.48-2.26-9.53-14.58-22.92-23.39-40.21-26.1-2.18-.34-5.23,.09-6.68,1.44-.97,.9-.44,4.38,.49,6.13,3.49,6.54,6.92,13.21,11.31,19.15,5.48,7.43,9.28,15.31,11,24.34,2.09,11.02,4.35,22.02,6.85,32.96,1.4,6.14,3.39,6.99,8.98,3.95,3.17-1.72,5.5-1.34,7.87,1.05,1.43,1.44,2.75,3.18,4.49,4.09,3.75,1.96,7.74,3.47,11.63,5.16,9.17-3.54,12.92,1.32,15.89,9.14,2,5.28,5.94,5.95,11.18,3.26,2.19-1.13,4.37-2.47,6.18-4.12,9.85-8.97,19.65-17.99,29.28-27.19,1.76-1.68,2.64-4.27,3.92-6.42-4.2-3.32-7.87-1.7-11.15-.76-14.73,4.26-29.67,8.07-42.71,16.66-1.12,.74-2.41,1.31-3.71,1.66-4.39,1.19-8.15-.21-11.06-3.44-2.84-3.16-4.52-6.82-3.2-11.79,3.36,1.79,5.49,5.48,9,3.21,3.53-2.28,6.06-1.34,9.12,.96,4.02,3.02,4.97,2.47,8.73-.72,4.28-3.63,8.92-6.86,13.4-10.26,1.52-1.16,3.05-2.32,4.61-3.51q-4.7-5.21,.21-9.2Zm-89.02,46.27c5.32-4.14,5.47-9.05,4.11-14.72-1.93-8.07-2.87-16.38-5.06-24.37-2.61-9.5-5.44-19.06-9.42-28.05-3.71-8.39-8.98-16.11-13.74-24.02-1.85-3.07-4.18-5.87-6.35-8.75-4.22-5.61-9.56-8.68-16.92-7.76-3.81,.47-7.76-.06-11.51,.59-4.64,.81-9.33,1.94-13.65,3.74-4.33,1.81-5.39,5.32-3.72,9.51,2.57,6.45,5.3,12.83,7.92,19.26,6.97,17.12,11.45,34.99,16.33,52.75,1.41,5.13,3.56,10.17,6.14,14.83,4.51,8.15,11.86,11.4,21.13,10.24,6.04-.76,12.06-1.65,18.1-2.41,1.31-.16,2.65-.02,3.98-.02,.04,.45,.08,.89,.12,1.34-3.17,.96-6.35,1.85-9.49,2.88-5.01,1.64-7.43,3.89-6.92,6.29,.49,2.34,4.26,4,8.67,3.95,11-.13,20.56-4.56,29.78-9.89,2.41-1.39,2.86-5.41,1.2-7.84-1.56-2.28-3.87-2.79-6.35-.63-4.15,3.62-9.01,3.36-14.36,3.08Zm-103.59,834.8c5.84-.7,12.12-1.48,18.4-2.18,6.74-.76,13.46-1.68,20.22-2.1,6.36-.39,10-3.62,13.19-8.94,6.87-11.48,15.17-21.76,27.75-27.87,6.01-2.92,10.76-7.39,13.09-13.96,2.53-7.12-.37-11.46-7.81-11.97-3.05-.21-6.06-1.14-9.08-1.79-1.98-.43-3.93-1.29-5.92-1.34-11.31-.29-22.63-.67-33.94-.47-7.06,.12-13.63,2.93-17.57,8.76-4.1,6.07-10.15,10.95-11.98,18.52-.34,1.41-1.85,2.52-2.72,3.83-6.44,9.76-12.97,19.46-19.24,29.33-3.32,5.22-1.21,9.04,5.05,9.63,3.37,.32,6.76,.37,10.55,.57Zm-72.82,13.83c.45-.05,.9-.09,1.35-.14,12.91-1.39,25.25-4.79,37.18-9.86,3.77-1.6,6.21-4.17,8.15-7.67,2.83-5.1,5.97-10.03,9.12-14.93,3.9-6.05,8.32-11.8,11.83-18.06,4.2-7.48,8.7-14.66,14.25-21.26,2.1-2.49,3.67-5.74,4.49-8.89,1.11-4.28-1.23-6.93-5.65-7.33-1.32-.12-2.72,.07-4.02,.38-8.98,2.14-17.94,4.4-26.92,6.53-6.81,1.62-13.73,2.84-20.44,4.79-2.86,.83-6.26,2.44-7.75,4.76-4.13,6.39-8.24,13.05-10.73,20.16-2.41,6.9-6.14,12.94-9.73,19.05-4.7,8.01-5.01,17.06-7.57,25.56-.06,.21-.01,.45,0,.67,.27,4.11,2.38,6.16,6.44,6.24Zm134.81-302.44c-6.74-.08-8.23,.99-10.58,6.21-3.39,7.52-8.18,13.79-15.39,18.31-3.76,2.35-7.25,5.47-10.06,8.89-6.01,7.3-5.06,15.75,2.87,20.96,12.5,8.2,26.02,14.38,40.77,17.72,5.91,1.34,9.82-.77,13.36-5.4,4.23-5.52,8.49-11.33,13.87-15.59,6.21-4.91,9.04-10.83,10.24-18.18,1.32-8.13-.15-12.38-7.53-16.2-10.21-5.29-20.69-10.07-31.14-14.89-2.41-1.11-5.17-1.47-6.41-1.81Zm-17.28,298.19c.11-5.67-1.44-7.44-7-7.44-3.61,0-7.22,.34-10.82,.64-11.47,.98-22.92,2.16-34.41,2.97-7.27,.51-10.44,2.98-10.4,10.36,.07,10.68-3.31,20.79-4.56,31.24-.34,2.81-.87,5.32,1.08,7.59,2.26,2.64,1.59,5.42,.66,8.25-.49,1.49-1.07,2.96-1.65,4.42-1.43,3.61-1.64,7.18,1.54,9.92,3.1,2.66,6.92,2.48,10.18,.55,5.81-3.44,12.31-4.28,18.68-5.74,3.3-.76,6.59-1.6,9.85-2.53,3.56-1.01,5.64-3.22,6.49-6.98,.62-2.76,2.13-5.33,3.34-7.94,1.6-3.45,3.29-6.86,4.92-10.29,1.16-2.43,1.79-5.3,3.51-7.23,7.13-8.05,7.55-17.98,8.58-27.8Zm-58.71-324.41c-2.45,1.02-6.35,1.51-8.37,3.7-6.85,7.43-15.28,14.28-14.16,26.1,.1,1.04-.3,2.29-.86,3.21-2.3,3.79-.9,7,1.64,9.82,2.4,2.67,4.84,5.54,7.84,7.39,9.41,5.79,19.07,11.19,28.7,16.61,1.74,.98,3.77,1.53,5.74,2.02,4.7,1.17,7.7,.38,9.81-3.75,4.37-8.56,11.17-15.21,16.83-22.74,3.72-4.95,6.65-10.7,8.85-16.5,2.17-5.69-.34-9.97-5.97-12.52-2.05-.92-4.25-1.53-6.42-2.15-8.47-2.43-16.91-4.94-25.43-7.17-5.67-1.48-11.45-2.55-18.2-4.02Zm-15.35,339.93c.25,0,.49,0,.74-.01,0-2.47,.01-4.94,0-7.41,0-.67-.08-1.35-.21-2.01-.91-4.49-3.31-6.18-7.75-5.21-1.97,.43-3.79,1.48-5.75,2-7.63,2.01-15.21,4.39-22.97,5.73-9.99,1.72-14.13,7.18-11.73,16.81,.42,1.7,.98,3.71,.46,5.24-3.53,10.36,1.2,19.84,3.13,29.55,1.03,5.2,3.55,10.09,5.07,15.22,1.43,4.85,4.24,7.76,9.24,7.03,7.79-1.14,15.5-2.94,23.13-4.89,4.37-1.11,6.56-4.58,7.02-8.99,.21-2.01,.28-4.04,.25-6.06-.18-15.66-.41-31.33-.62-46.99Zm74.61,32.76c2.87-1,7.94-2.8,13.03-4.55,3.62-1.25,7.21-3.27,10.91-3.51,12.13-.8,22.61-5.97,31.33-13.39,8.2-6.99,16.19-12.52,27.36-12.77,3.69-.08,6.69-2.68,8.62-5.96,1.58-2.69,1.05-4.82-1.76-6.1-5.53-2.52-10.96-5.44-17.35-5.36-1.78,.02-3.58-.46-5.36-.74-13.17-2.09-26.15-5.48-39.69-4.78-4.2,.22-8,.63-11.44,3.32-1.5,1.17-3.58,1.8-5.5,2.18-4.64,.93-6,1.87-6.29,6.34-.71,10.9-4.81,20.44-11.18,29.18-1.05,1.45-2.03,3.01-2.72,4.65-2.68,6.38,.64,11.35,10.06,11.51Zm-87.33-126.38c.01,.1,.03,.2,.04,.3,2.45-.4,4.93-.66,7.34-1.21,16.5-3.82,33.01-7.6,49.46-11.66,2.73-.67,5.27-2.43,7.7-4,4.91-3.17,9.46-6.95,14.56-9.75,9.5-5.21,19.3-9.89,28.97-14.78,2.61-1.32,5.92-2.27,5.63-5.9-.33-4.15-4.3-3.96-7.17-4.96-.21-.07-.44-.11-.67-.12-17.11-.72-34.24-3.83-51.34-.22-3.89,.82-8.13,1.77-11.28,3.97-9.98,6.97-19.54,14.53-29.22,21.92-2.68,2.05-5.22,4.3-7.78,6.51-4.11,3.53-8.35,6.94-12.17,10.75-1.22,1.22-2.27,3.96-1.69,5.28,.73,1.68,3.12,2.74,4.94,3.81,.67,.39,1.77,.06,2.68,.06Zm152.17,67.1c.01-.15,.03-.29,.04-.44,.91,0,1.82-.08,2.72,.01,14.26,1.41,24.09-6.04,32.61-16.06,2.11-2.48,3.99-5.5,2.42-8.65-5.15-10.33-10.73-20.27-23.29-23.64-10.76-2.89-20.52-2.26-29.3,5.41-3.55,3.1-7.78,5.41-11.67,8.13-4.44,3.1-9.11,5.95-13.17,9.49-3.37,2.93-6.34,6.47-8.87,10.16-3.89,5.67-1.6,10.57,5.24,11.88,2.21,.42,4.51,.41,6.77,.56,3.83,.26,7.68,.42,11.5,.76,8.34,.75,16.67,1.59,25,2.39Zm-123.66-123.94c-4.32,.8-7.43,1.32-10.52,1.97-12.37,2.61-24.79,4.99-37.06,7.99-7.05,1.72-13.72,4.55-18.02,11.07-6.68,10.13-13.59,20.12-20.26,30.26-3.09,4.69-5.95,9.55-8.71,14.44-1.5,2.66-2.01,5.75,.1,8.25,2.46,2.92,5.27,1.08,7.99-.1,10.34-4.51,20.69-9.01,31.11-13.35,4.71-1.97,8.47-4.72,11.49-8.98,2.96-4.16,6.59-8,10.48-11.34,11.79-10.13,23.83-19.98,35.82-29.88,2.3-1.9,4.05-4.3,2.53-6.93-1.01-1.75-3.66-2.55-4.96-3.38Zm-109.47,150.33c.57,1.12,1.3,4.07,3.17,5.87,2.55,2.46,5.45,.38,8.1-.91,5.88-2.86,11.73-5.8,17.73-8.4,5.06-2.19,7.99-5.61,8.32-11.18,.47-8.14,2.59-15.81,6.06-23.26,3.31-7.11,5.77-14.6,8.79-21.85,1.89-4.54,3.87-9.08,6.28-13.35,1.88-3.32,5.33-6.55,2.23-10.23-3-3.56-7.24-1.41-10.68,.08-10.12,4.39-20.15,8.98-30.16,13.63-4.77,2.22-7.81,5.97-8.94,11.18-.52,2.41-1.16,4.8-1.93,7.14-5.27,16.11-6.55,32.9-8.97,51.29Zm-26.79-263.43c-4.43-.15-7.91,1.47-10.9,4.66-3.7,3.94-7.48,7.84-11.47,11.48-7.97,7.27-13.61,16.21-18.66,25.5-3.64,6.7-.86,13.31,6.55,15.42,8.01,2.28,16.26,3.76,24.45,5.4,3.87,.78,7.19-.58,9.53-3.79,9.35-12.81,20.42-23.95,32.58-34.16,7.39-6.2,6.14-12.34-2.78-16.4-1.23-.56-2.52-1-3.81-1.38-6.5-1.9-13-3.8-19.52-5.6-1.94-.54-3.97-.76-5.96-1.13Zm-35.57,136.6c7.28,.48,8.47-.37,11.3-8.33,3.54-9.95,7.12-19.88,10.75-29.8,2.01-5.48,4.55-10.8,6.14-16.39,2.58-9.04,.21-13.22-8.64-15.7-6.08-1.71-12.36-2.68-18.47-4.31-9.18-2.44-12.56-.72-14.86,8.27-1.61,6.29-3.14,12.61-4.52,18.96-2.05,9.4-4.05,18.82-5.81,28.28-.49,2.61-.32,5.41-.02,8.07,.66,5.73,3.96,8.93,9.65,9.58,4.49,.51,9,.86,14.48,1.37Zm48.05-67.33c11.97-.51,23.94-1.01,35.91-1.55,4.09-.19,7.58-1.96,9.94-5.15,5.64-7.65,13.42-12.61,21.22-17.65,5.5-3.55,11.04-7.1,16.17-11.14,1.68-1.32,2.97-4.15,2.98-6.3,.01-2.77-2.93-3.63-5.41-4.27-.44-.11-.89-.18-1.33-.28-13.37-2.75-26.89-3.86-40.53-3.27-5.15,.22-9.57,2-13.42,5.64-5.58,5.27-11.8,9.87-17.21,15.29-5.4,5.4-10.67,11.09-15.01,17.32-4.26,6.12-.59,11.96,6.68,11.36Zm9.43,56.65c.1,6.59,3.82,8.15,9.88,5.88,10.36-3.87,20.73-7.78,31.27-11.12,4.55-1.44,8.04-3.68,11.21-7.08,3.2-3.44,6.61-6.83,10.44-9.55,10.11-7.2,20.56-13.94,30.74-21.05,2.89-2.02,6.62-4.31,5.11-8.59-1.48-4.21-5.6-3.91-9.29-3.6-14.65,1.26-29.3,2.48-43.94,3.89-6.15,.59-11.04,3.5-14.8,8.54-9.16,12.27-18.58,24.35-27.73,36.62-1.55,2.08-2.29,4.75-2.9,6.05Zm-41.2,3.13c-.28,8.51,2.39,10.92,8.59,9.4,6.57-1.61,13.03-3.67,19.57-5.43,3.04-.82,5.16-2.57,6.64-5.3,6.8-12.5,15.88-23.42,24.4-34.74,2.84-3.77,5.92-7.42,8.29-11.48,2.71-4.63,.71-8.28-4.57-8.22-11.52,.13-23.02,.75-34.54,1.16-6.18,.22-9.9,3.38-12.01,9.1-4.19,11.36-8.77,22.58-12.97,33.94-1.62,4.39-2.66,9-3.4,11.57Zm282.09-182.53c.02-8.4-.09-8.64-7.23-13.91-10.68-7.88-18.4-17.81-21.83-30.77-.57-2.16-1.37-4.29-2.34-6.31-3.56-7.39-10.21-8.28-15.62-2.1-1.17,1.34-2.24,2.88-2.93,4.5-3.14,7.44-6.42,14.84-9.11,22.44-3.5,9.9-1.69,15.55,6.82,21.48,13.05,9.09,27.91,13.59,43.51,15.81,5.42,.77,8.37-2.19,8.72-7.77,.07-1.12,.01-2.25,.01-3.37Zm-197.65,331.39c0-1.57,.01-3.14,0-4.72-.07-7.15-3.18-9.53-9.89-6.87-5.85,2.33-11.49,5.25-17.06,8.23-4.31,2.31-6.74,6.48-6.58,11.1,.26,7.57,.58,15.33,2.51,22.59,2.29,8.62,6.2,16.77,7.17,25.84,.51,4.75,4.07,7.64,8.48,7,6.22-.9,12.36-2.55,18.42-4.26,2.91-.82,5.34-2.92,5.33-6.29-.03-7.57,1.06-15.18-2.52-22.49-4.62-9.46-5.57-19.78-5.87-30.14Zm-63.97-77.71c.07,4.07,2.15,5.95,5.74,5.23,1.71-.34,3.43-1.21,4.86-2.22,5.54-3.92,11.12-7.8,16.35-12.09,2.36-1.94,4.23-4.66,5.8-7.33,2.61-4.47,4.42-9.42,7.25-13.73,6.55-9.97,13.5-19.68,20.29-29.5,1.28-1.85,2.61-3.68,3.82-5.57,1.42-2.22,2.37-4.94,.22-6.78-1.42-1.22-4.03-1.18-6.13-1.48-.83-.12-1.79,.28-2.63,.59-9.98,3.66-19.92,7.41-29.92,11.01-6.37,2.29-9.77,7.06-11.59,13.16-3.47,11.62-6.85,23.27-10.23,34.91-1.37,4.73-2.64,9.5-3.83,13.79Zm-62.33-33.79c-.13,.01-.27,.02-.4,.03,.6,9.62,.86,19.28,1.95,28.85,.63,5.51,2.44,10.92,4.05,16.27,1.25,4.14,4.52,5.94,8.8,6.12,6.26,.27,9.64-2.44,10.98-9.47,1.09-5.71,1.66-11.52,2.58-17.27,2.09-13.06,4.43-26.08,6.33-39.17,.97-6.67-1.65-9.76-8.32-10.42-4.95-.48-9.95-.68-14.92-.6-7.29,.11-10.75,3.56-11.01,10.82-.18,4.94-.03,9.89-.03,14.83Zm218.4-90.44c0,.12-.02,.24-.03,.37-1.13-.11-2.25-.27-3.38-.33-10.14-.54-20.05,.6-28.84,5.94-10.62,6.45-21.07,13.2-31.32,20.21-4.06,2.77-7.66,6.35-10.97,10-2.69,2.98-1.03,6.34,2.97,6.56,1.75,.1,3.56-.46,5.32-.84,15.69-3.41,31.41-6.7,47.05-10.35,4.58-1.07,9.06-2.86,13.32-4.87,8.18-3.85,16.18-8.06,24.23-12.18,1.8-.92,3.71-1.82,5.18-3.16,3.08-2.82,2.38-6.98-1.39-8.82-1.39-.68-2.99-1.12-4.53-1.25-5.86-.52-11.73-.87-17.59-1.28Zm37.35-189.2c-.07-.29-.14-.58-.2-.87-5.91,1.33-11.84,2.54-17.71,4.02-10.91,2.75-20.13,9-29.78,14.38-4.1,2.28-6.83,5.42-6.39,10.2,.44,4.71,3.93,6.69,8.23,7.74,10.74,2.64,21.46,5.34,32.17,8.12,8.13,2.11,11.11,1.08,14.57-6.6,3.78-8.39,7.24-16.94,10.41-25.58,2.78-7.57,.09-11.17-7.89-11.42-1.13-.03-2.27,0-3.4,0Zm-224.59,316.42c-.2,12.7,4.89,15.96,13.85,11.65,5.96-2.87,9.93-7.04,11.69-13.86,3.02-11.71,7.01-23.17,10.57-34.74,1.85-6,3.8-11.97,5.43-18.03,1.62-6-1.25-9.05-7.63-7.98-5.12,.86-10.19,2.08-15.19,3.47-6.32,1.75-9.73,6.13-10.65,12.57-.48,3.32-1.33,6.59-1.89,9.9-2.24,13.25-4.43,26.5-6.18,37.02Zm-28.44-190.01c-.01,8.58,1.25,15.58,5.57,21.68,3.15,4.46,6.23,4.55,9.83,.37,9.83-11.42,19.56-22.93,29.38-34.35,2.62-3.04,4.05-6.47,3.86-10.45-.15-3.12-.33-6.26-.87-9.32-1.42-8.04-4.9-10.3-12.81-8.04-9.37,2.68-17.05,8.18-23.48,15.3-1.75,1.93-2,5.49-3.96,6.89-6.89,4.91-6.96,12.05-7.52,17.93Zm57.43,258.01c.4,3.99,.53,8.29,1.32,12.45,.77,4.05,4.55,6.16,7.56,3.92,5.77-4.3,11.68-9.11,12.48-16.88,1.66-16.08,4.28-31.97,7.83-47.73,1.23-5.46,2.58-10.95,3.13-16.5,.59-5.97-2.69-7.98-7.95-4.88-5.63,3.32-10.98,7.13-16.24,11-4.21,3.1-6.28,7.7-6.85,12.75-.67,6.01-1.1,12.07-1.23,18.11-.2,9.17-.05,18.34-.05,27.75Zm144.13-233.4c-5.86-5.09-10.36-5.04-14.95-.27-3.15,3.28-4.49,3.74-7.13,.67-3.57-4.15-7.57-4.47-12.19-2.91-3.83,1.29-7.92,2.27-11.3,4.34-9.42,5.76-18.55,11.99-27.75,18.11-1.29,.86-2.52,1.98-3.41,3.23-3.02,4.26-1.18,7.97,4.07,8.35,1.34,.1,2.72-.02,4.06-.14,15.06-1.34,30.1-3.36,45.19-3.82,10.11-.31,16.47-6.68,23.91-11.42,2.98-1.9,2.3-4.35-.84-6.32-1.94-1.21-3.86-2.45-6.24-3.97,2.72-2.41,4.62-4.1,6.58-5.85Zm97.41,94.16c-.55,.11-1.44,.28-2.32,.44-14.71,2.64-29.05,6.68-42.88,12.25-4.1,1.65-7.66,4.69-11.32,7.29-2.08,1.48-3.55,3.51-3,6.33,.57,2.94,2.93,3.85,5.42,4.33,1.97,.39,4.03,.61,6.03,.52,18.27-.82,36.53-1.7,54.8-2.64,3.37-.17,6.89-.23,10.03-1.26,2.06-.67,4.61-2.72,5.12-4.62,1.09-4.1,1.17-8.51-3.14-11.52-1.26-.88-2.68-2.04-3.2-3.39-2.78-7.18-9.08-7.2-15.54-7.75Zm-202.56-127.45c4.43-.71,8.32-1.82,11.51-4.58,3.07-2.66,6.03-5.45,8.84-8.38,5.19-5.44,2.71-16.29-4.18-19.32-3.66-1.61-7.01-4.02-10.76-5.31-3.73-1.28-7.96-2.71-11.67-2.14-9.11,1.39-17.19,5.68-23.75,12.19-7.64,7.59-6.1,16.41,4.02,20.21,8.4,3.15,17.31,4.94,25.99,7.34Zm-2.46,338.29c-.96-9.48-.34-19.24-5.13-28.14-1.46-2.72-2.07-5.93-2.81-8.98-.95-3.92-1.38-7.97-2.49-11.84-1.51-5.22-5.83-6.45-9.82-2.74-5.08,4.73-8.39,10.41-8.75,17.65-.4,7.97,.91,15.66,3.11,23.23,2.69,9.25,5.23,18.56,8.44,27.63,2.46,6.94,7.43,7.36,12.07,1.49,4.25-5.37,6.17-11.43,5.38-18.31Zm421.9-903.75c-.97-11.41-1.17-20.7-5.05-29.26-.92-2.03-2.87-4.27-4.87-4.98-2.83-1.01-4.12,1.89-5.47,3.99-5.99,9.26-12.11,18.45-18.01,27.77-1.66,2.62-3.22,5.5-3.94,8.48-1.82,7.48,1.62,12.03,9.24,13.42,2.38,.43,4.67,1.46,6.93,2.39,8.28,3.38,15.02,.84,17.95-7.58,1.82-5.23,2.49-10.84,3.23-14.22Zm-462.49,817.79c-.08,0-.17,0-.25,0,0-9.21,.14-18.43-.04-27.63-.15-7.58-4.33-10.01-11.25-6.82-7.77,3.58-11.17,9.84-10.45,18.57,1,12.05,1.66,24.14,2.77,36.18,.49,5.33,1.35,10.69,2.69,15.87,1.22,4.71,5.04,6.72,9.32,5.7,3.98-.96,5.31-4.1,5.52-7.61,.68-11.41,1.14-22.83,1.69-34.25ZM795.61,681.52c3.64-1.28,6.67-1.43,7.96-2.99,2.83-3.42,5.13-7.4,6.98-11.45,1.87-4.1-.04-8.91-3.66-11.17-3.24-2.03-5.68-1.08-6.52,2.58-.2,.86-.12,1.78-.14,2.67-.05,2.18-.5,4.24-3.2,4.24-2.34,0-2.74-1.87-2.93-3.78-.13-1.33-.12-2.83-.76-3.91-.93-1.59-2.23-3.84-3.66-4.08-2.91-.48-4.2,2.08-4.83,4.6-.27,1.07-.4,2.29-.15,3.34,.89,3.82,.68,6.85-3.5,8.93-1.5,.75-2.61,3.17-3.01,5.02-2.05,9.63-4.37,19.25-5.47,29-.74,6.51-2.03,12.73-3.69,19.04-2.1,7.99-3.2,16.23-4.74,24.36,.48,.13,.95,.26,1.43,.39,2.23-4.84,4.34-9.73,6.71-14.5,5.63-11.31,9.47-23.58,18.36-33.18,2.76-2.98,4.1-6.77,3.83-11.13-.17-2.78,.65-5.63,.97-7.99Zm-345.93,835.03c-5.98,.59-12.2,1.27-17.29,5.81-2.85,2.54-6,4.77-9.15,6.94-1.43,.98-3.21,2.11-4.81,2.08-5.99-.12-10.25,2.73-14.2,6.75-2.51,2.56-5.52,4.64-8.19,7.05-1.83,1.65-3.71,3.33-5.12,5.31-2.53,3.55-2.53,7.48-.44,10.02,2.1,2.56,5.38,2.66,9.91,.43,4.24-2.08,8.55-4.02,12.78-6.11,3.42-1.69,6.79-3.5,10.16-5.3,2.19-1.16,4.21-2.75,6.52-3.52,8.91-2.99,16.55-8.22,24.35-13.17,1.52-.97,3-2.03,4.35-3.21,2.46-2.13,3.07-4.94,2.31-7.98-.76-3.06-3.42-4.03-6.09-4.7-1.51-.38-3.14-.27-5.1-.41Zm-226.87-288.05c-2.91,12.38-6.11,23.98-8.24,35.76-1.58,8.77-1.86,17.77-2.56,26.69-.58,7.36-1.1,14.74-1.33,22.12-.12,3.7,3.4,7.43,6.51,7.39,3.76-.05,4.7-2.94,5.51-5.83,.37-1.29,.6-2.62,.92-3.93,3.87-15.67,7.8-31.33,11.56-47.02,.67-2.79,1.03-5.77,.86-8.63-.53-8.8-5.43-16.03-9.32-23.58-.53-1.03-2.02-1.58-3.91-2.98Zm76.53,346.44c-.33-3.31-.19-5.87-.87-8.2-4.1-14.2-5.09-29.18-10.91-42.95-1.13-2.67-1.6-5.62-2.72-8.29-1.1-2.63-3.07-4.46-6.28-4.19-3.07,.26-4.99,2.16-5.99,4.79-.61,1.62-.88,3.54-.68,5.25,.64,5.54,1.34,11.09,2.45,16.56,.98,4.82,2.67,9.49,3.83,14.27,1.64,6.75,2.8,13.63,4.72,20.3,1.09,3.78,2.68,7.71,5.1,10.75,3.25,4.08,8.19,2.99,10.13-1.88,.88-2.23,.93-4.78,1.21-6.41Zm-1.9,31.97c.14,.62,.07,2.16,.77,3.19,5.32,7.79,10.5,15.71,16.35,23.1,2.86,3.62,7.28,3.28,10.69-.27,3.26-3.39,6.22-7.14,8.82-11.05,2.47-3.71,1.97-6.27-1.22-9.7-3.37-3.63-6.73-7.32-10.46-10.57-2.67-2.33-5.72-4.55-8.99-5.84-7.49-2.95-16.01,2.84-15.95,11.14Zm-43.93-142.34c.12,0,.23-.01,.35-.02,0-4.72,.28-9.46-.07-14.16-.38-5.11-.87-10.31-2.19-15.24-1.26-4.71-5.97-7.02-10.01-5.91-4.05,1.11-6.07,4.46-5.2,9.66,1.18,7.06,2.8,14.05,4.11,21.08,.53,2.85,.7,5.77,1.12,8.64,1.15,7.76,2.24,15.52,3.6,23.24,.34,1.92,1.26,3.98,2.54,5.43,1.2,1.36,3.41,2.93,4.84,2.66,1.22-.23,2.53-2.84,2.81-4.56,.43-2.62,.13-5.38-.07-8.06-.56-7.59-1.22-15.17-1.84-22.76Zm321.06-847.03c4.07-3.39,5.49-.21,7.48,.76,2.04,.99,4.59,2.51,6.07,.2,.97-1.52,.46-4.22,.02-6.27-.24-1.12-1.59-2.16-2.66-2.94-3.9-2.86-12.52-2.36-16.66,.2-4.56,2.81-9.47,5.06-14.28,7.43-1.81,.89-4.02,1.09-5.64,2.2-1.52,1.04-3.59,3-3.43,4.3,.18,1.39,2.63,2.58,4.22,3.66,.7,.48,1.71,.54,2.6,.69,4.9,.84,9.78,1.95,14.72,2.38,4.39,.38,8.29,1.25,11.91,4.03,2.64,2.03,5.98,2.81,9.64,.79-2.72-7.41-7.78-12.62-13.99-17.43Zm-288.5,1014.05c-.46,.13-.92,.27-1.37,.4,.83,2.92,1.28,6.02,2.58,8.71,2.39,4.94,6.08,8.9,11.1,11.4,3.33,1.66,5.83,3.83,7.44,7.39,1.76,3.9,4.82,3.78,6.88,.05,2.31-4.18,1.49-8.31-.92-12.11-3.25-5.12-6.56-10.22-10.18-15.09-3.21-4.32-6.77-8.4-10.4-12.39-1.73-1.9-4.21-3.11-6.67-1.38-2.31,1.62-1.29,3.92-.5,6.1,.82,2.26,1.37,4.61,2.03,6.92Zm-68.15-245.06c.91-3.68,1.86-6.17,2.1-8.72,.58-6.24,.92-12.5,1.2-18.76,.18-4.03,.66-8.17-.02-12.08-.79-4.56-2.43-9.04-4.25-13.32-.95-2.23-3.35-4.34-5.99-2.92-1.26,.67-1.57,3.31-2.03,5.13-.26,1.04,0,2.23,.11,3.35,1.01,11.37,1.8,22.76,3.19,34.09,.52,4.23,.6,9.01,5.7,13.24Zm40.89,136.85c-2.73,5.87-3.91,10.01-2.69,14.58,3.4,12.75,6.76,25.52,10.19,38.26,.81,3.01,1.71,6.02,2.87,8.92,.31,.78,1.78,1.62,2.63,1.53,.83-.09,2.12-1.24,2.21-2.04,.29-2.41,.62-5.02,0-7.3-3.68-13.5-6.57-27.17-9.04-40.93-.36-1.98-.66-4.05-1.5-5.84-.98-2.09-2.51-3.93-4.67-7.19Zm58.2-410.13c-2.08-.57-3.79-1.63-5.24-1.34-10.22,2.02-20.46,4.15-29.05,10.53-2.96,2.2-7.6,4.53-5.49,8.82,1.88,3.82,6.54,2.88,10.41,2.07,11.12-2.31,19.16-9.73,27.63-16.4,.76-.6,.94-1.91,1.75-3.68Zm23.71,470.57c-2.22-5.08-4.01-10.41-6.8-15.16-2.35-4.01-6.07-3.96-9.81-.87-7.81,6.44-7.77,16.21,0,23.18,2.81,2.51,5.67,4.54,9.69,2.94,3.54-1.4,5.99-5.35,6.91-10.09Zm84.86-1011.27c.19,2.46,.17,4.95,.63,7.36,.55,2.89,1.38,5.86,4.95,6.54,3.28,.62,5.65-1.12,7.66-3.37,5.92-6.62,7.02-14.61,3.16-22.52-2.39-4.89-5.89-5.75-10.36-2.81-5.49,3.61-6.52,8.85-6.03,14.8Zm26.16,695.45s0,.08,0,.12c1.36,0,2.72,.03,4.07,0,3.16-.08,6.41,.22,9.43-.47,1.54-.35,3.58-2.4,3.72-3.84,.14-1.47-1.59-3.3-2.86-4.65-.67-.71-2.06-.91-3.17-1.04-8.19-.91-16.28-.22-24.06,2.43-1.58,.54-2.61,2.68-3.9,4.07,1.52,1.12,2.94,3.03,4.57,3.22,4.01,.47,8.12,.15,12.19,.15Zm-66.47,269.54c-3.28,1.84-7.1,3.13-9.69,5.66-2.78,2.72-4.95,5.32-9.34,5.5-2.9,.12-4.26,3.23-2.95,5.51,1.41,2.44,3.57,3.24,6.35,2.19,2.05-.77,4.13-1.9,6.24-2.01,7.05-.38,11.99-3.99,13.77-10.6,.89-3.29-.59-5.35-4.38-6.25Zm-8.03-383.69c1.66-1.08,4.11-1.95,5.42-3.68,2.55-3.36,4.66-7.1,6.51-10.89,.64-1.32,.6-3.82-.26-4.78-.91-1.01-3.4-1.52-4.8-1.05-5.84,1.95-10.91,5.29-14.59,10.27-2.36,3.2-1.62,5.68,1.94,7.69,1.54,.87,3.27,1.39,5.79,2.44Zm86.83,156.15c3.45-.61,7.26-1.05,10.92-2.03,2.34-.62,4.09-2.71,3.27-5.14-.54-1.59-2.39-3.46-3.98-3.84-6.56-1.56-13.02-.88-19.02,2.45-.77,.43-1.53,.99-2.1,1.66-1.82,2.14-1.47,4.56,1.19,5.37,2.96,.9,6.17,1.01,9.72,1.52Zm-100.8-97.99c2.58,.02,5.84,.77,6.49-2.9,.55-3.1-.76-5.68-3.67-7.26-.39-.21-.82-.4-1.25-.5-4.97-1.13-9.93-1-14.46,1.33-1.52,.78-3.1,2.95-3.2,4.59-.17,2.61,2.33,3.58,4.69,3.83,3.79,.4,7.6,.62,11.4,.92ZM715.79,296.58c4.3-6.33,4.27-13.23,4.88-19.89,.52-5.68-2.82-9.32-9.48-10.44,.72,8.96,1.34,17.73,2.22,26.46,.13,1.29,1.48,2.47,2.38,3.87Zm-131.68,437.85c.91,3.22,3.63,2.85,6.03,3.07,2.93,.27,3.92,2.6,3.72,4.72-.15,1.58-1.82,3.19-3.16,4.4-.69,.63-2.34,.13-3.21,.68-1.37,.86-3.44,2.14-3.47,3.3-.07,2.47,2.26,2.92,4.44,2.86,5.2-.15,10.96-4.84,12.32-9.97,.66-2.5-.1-4.45-2.31-5.71-2.89-1.65-5.83-3.21-8.81-4.68-2.13-1.05-4.3-1.61-5.55,1.34Zm207.11-83.87c2.97,0,5.77,.49,8.26-.16,1.85-.48,3.81-2.15,4.82-3.82,1.38-2.27-.29-4.18-2.2-5.59-3.17-2.34-6.55-2.55-9.31-.62-2.88,2.02-3.29,4.21-1.57,10.19Zm-238.26-433.24c-.53-4.68-3.53-6.02-6.82-7.08-3.5-1.13-7.09-1.96-10.4,.2-1.13,.74-2.26,2.47-2.21,3.7,.05,1.22,1.37,3.16,2.48,3.45,5.6,1.46,11.27,1.85,16.95-.26Zm-47.78,1087.19c.28-.7,.55-1.4,.83-2.1-3.56-2.67-5.8-7.1-11.02-7.56-2.72-.24-5.54,.16-6.72,3.23-.95,2.48,.85,5.66,4.52,6.28,4.02,.68,8.26,.16,12.4,.16Zm134.12-661.16c-.76-1.17-1.88-3.37-3.46-5.16-1.62-1.84-3.72-3.27-5.58-4.9-1.57-1.37-3.36-3.07-5.25-1.13-1.99,2.04-.58,4.03,1.06,5.84,1.8,1.99,3.35,4.21,5.09,6.26,1.01,1.19,1.99,2.55,3.29,3.31,2.64,1.55,5.07-.07,4.85-4.22Zm-243.25,496.53c-5.34,1.94-6.41,6.1-6.44,10.41-.02,2.92,.38,6.31,4.48,7.08q4.69-12.59,1.96-17.49Zm198.55-292.11c4.46,2.38,10.23,1.28,12.36-2.71,.67-1.25,.85-3,.63-4.43-.38-2.47-2.67-3.45-4.43-1.82-3.04,2.82-5.76,5.99-8.57,8.96Zm-38.28,385.26c3.06-.1,5.06-1.77,5.02-4.19-.05-2.83-2.84-5.38-5.81-5.32-2.82,.06-4.92,2.34-4.84,5.26,.08,2.82,2.12,4.37,5.63,4.25Zm-32.9-1095.92c-2.36-1.07-3.55-2.03-4.79-2.08-2.37-.1-3.76,1.36-3.68,3.77,.08,2.26,1.77,3.42,3.63,2.73,1.55-.57,2.64-2.33,4.84-4.41Zm139.3-33.85c1.22,4.01,3.38,5.57,6.99,5.33,.52-5.51-.21-6.11-6.99-5.33Zm95.53,127.97c-4.03-4.92-5.56-4.96-8.6,0h8.6Zm-366.49,982.1c-4.48-4.18-8.07-1.91-12.58-1.61,4.1,3.3,7.62,2.73,12.58,1.61Zm183.18-611.53c-1.9-1.58-2.96-2.94-4.34-3.42-.77-.27-2.76,.75-2.97,1.51-.64,2.35,.96,3.76,3.16,3.91,.99,.07,2.07-.95,4.15-2Zm14.37,229.92c1.08,2.02,2.44,3.39,4.68,1.75,.49-.36,.58-2.28,.12-2.72-1.8-1.72-3.54-1.47-4.8,.97ZM721.94,187.78c-3.24,2.19-3.12,4.06-.03,6.26,2.49-2.2,2.5-4.06,.03-6.26Zm-79.38-88.06c1.21,1.03,1.97,1.67,2.73,2.32,.74-.97,1.78-1.87,2.07-2.95,.13-.48-1.57-2.07-1.95-1.92-.98,.38-1.7,1.45-2.84,2.56Zm-204.89,98.05q3.6-.25,3.12-3.56c-1.12,1.28-1.96,2.24-3.12,3.56Zm-1.79,1.08l-.23,.29,.32,.07-.09-.35Z"/>
  <path class="cls-1" d="M327.71,402.14c3.69,4.91,7.1,9.44,10.78,14.34-1.65,.7-2.62,1.36-3.67,1.51-4.19,.63-5.83,3.48-5.83,7.13,0,6.73-2.24,12.34-5.61,18.26-2.47,4.34-4.96,8.94-7.06,13.57-1.53,3.37-2.21,7.28-2.48,11.01-1.07,14.65-5.9,28.05-13.19,40.65-1.19,2.07-3.15,3.97-5.21,5.22-4.99,3.04-10.21,5.69-15.41,8.37-.59,.3-1.62-.24-3.74-.64,1.72-1.9,2.61-3.32,3.89-4.2,2.6-1.78,5.3-3.51,8.16-4.83,5.95-2.74,9.75-7.3,11.75-13.31,2.55-7.67,4.85-15.42,7.19-23.15,2.98-9.86,3.3-20.42,7.84-29.86,3.2-6.67,6.52-13.28,9.9-19.86,1.94-3.78,2.7-7.34,.62-11.5-2.2-4.4-.72-8.6,2.07-12.74Z"/>
  <path class="cls-1" d="M295.08,440.87c4.92-2.5,9.34-4.75,13.76-7.01,.33,.27,.67,.53,1,.8-.53,1.19-.79,2.67-1.66,3.51-1.59,1.54-3.6,2.66-5.36,4.04-3.46,2.73-3.44,2.76-7.75-1.35Z"/>
  <path class="cls-1" d="M139.94,98.39c-4.99-2.9-7.66-5.93-9.27-9.92,4.34,1.5,7.19,4.36,9.27,9.92Z"/>
  <path class="cls-1" d="M144.03,102.19c2.36,2.6,4.73,5.21,7.09,7.81l-1.01,.93-7.01-8.07c.31-.22,.62-.45,.93-.67Z"/>
  <path class="cls-1" d="M253.23,405.28c-.55,2.45-1.6,3.58-3.76,2.75-.41-.16-.87-1.17-.72-1.57,.76-1.99,2.16-2.52,4.48-1.18Z"/>
  <path class="cls-1" d="M293.43,456.04c-1.46,.59-2.93,1.19-4.39,1.78-.23-.56-.47-1.12-.7-1.68,1.46-.62,2.91-1.24,4.37-1.86l.73,1.75Z"/>
  <path class="cls-1" d="M348.88,433.72c-.62-.91-1.24-1.82-1.86-2.74,.33-.39,.67-.78,1-1.17,.88,.65,1.76,1.31,2.65,1.96-.59,.65-1.19,1.29-1.78,1.94Z"/>
  <path class="cls-1" d="M124.8,81.91c.7,.78,1.41,1.56,2.11,2.34-.16,.18-.32,.35-.47,.53l-2.6-2.16c.32-.24,.64-.47,.96-.71Z"/>
  <path class="cls-1" d="M799.87,562.91c1.21-3.93,2.65-7.81,3.56-11.81,.89-3.91,1.45-7.93,1.69-11.93,.1-1.62-.53-4.04-1.69-4.84-5.59-3.84-3.13-8.02-.93-13.27,1.73,.99,3.88,1.49,4.38,2.67,1.18,2.81,2.4,6.02,2.11,8.93-.45,4.63-2.16,9.12-3.23,13.7-.86,3.7-1.48,7.46-2.36,11.16-.47,2-1.26,3.93-1.9,5.89-.54-.16-1.08-.33-1.62-.49Z"/>
  <path class="cls-1" d="M765.54,558.68q-6.13-8.12-3.24-12.13c1.2,4.48,2.22,8.3,3.24,12.13Z"/>
  <path class="cls-1" d="M633.66,328.59c-8.61-.64-17.21-1.28-25.61-1.9-.67,1.11-1.19,1.63-1.31,2.24-1.1,5.29-1.83,6.26-6.72,6.45-2.06,.08-4.69-.48-6.15-1.77-2.15-1.91-.2-4.07,1.1-5.92,.24-.34,.29-.82,.43-1.23-4.9-4.99-8.98-3.82-15.88,4.53,3.31,8.93,8.24,11.89,16.78,9.73,2.69-.68,4.39-.15,5.55,2.27,.82,1.7,1.61,3.41,2.79,5.9-6.03-1.49-11.09-2.55-16.03-4.02-5.19-1.55-10.3-3.41-15.38-5.31-5.01-1.88-9.94-3.98-15.38-6.18,.73-.85,1.38-1.95,2.33-2.62,4.79-3.39,9.56-6.8,14.51-9.94,7.37-4.67,9.12-11.38,7.05-19.22-.92-3.5-1.11-6.44,.97-9.57,1.77-2.66,1.09-4.88-1.78-6.78-3.55-2.34-3.84-4.09-1.8-6.22,2.47-2.57,6.89-2.97,9.17-.84,4.19,3.92,4.01,7.86-.54,11.55-5.17,4.2-4.41,10.5,1.83,13.15,5.67,2.4,10.38,5.22,11.35,12.08,.42,2.98,3.83,3.64,5.45,.92,2.44-4.1,5.92-4.14,9.85-4.32,4.17-.18,7.77,1.08,10.34,4.1,3.01,3.53,5.45,7.53,8.14,11.33-.36,.53-.72,1.07-1.07,1.6Zm-42.27-14.1c-1.13-1.7-2.36-3.06-4.6-1.53-.43,.29-.61,1.77-.27,2.18,1.6,1.89,3.27,1.93,4.87-.64Z"/>
  <path class="cls-1" d="M673.14,220.16c-.67-2.65-1.36-5.35-2.34-9.24,4.57,2.69,8.55,4.81,12.25,7.31,1.85,1.25,1.27,3.2-.13,4.68-2.32,2.45-4.44,5.2-7.16,7.11-1.85,1.3-4.56,1.81-6.92,1.89-6.09,.2-12.24,.45-18.27-.22-7.42-.83-14.74-2.57-22.22-3.94,.47-3.66,3.22-4.48,5.65-5.44,8.49-3.34,17.3-2.87,26.05-1.63,7.62,1.07,7.74,1.32,13.08-.52Z"/>
  <path class="cls-1" d="M614.69,199.04c4.07-7.19,8.49-12.65,17.14-12.91,9.46-.28,18.91-.79,28.36-1.22,2.93-.13,5.86-.29,8.79-.5,6.26-.46,11.38,1.42,15.69,7.6-4.39-.86-7.8-2.21-11.16-2.07-14.59,.62-29.27,.95-43.15,6.42-1.03,.4-2.26,.89-3.25,.68-3.56-.76-6.62-.16-9.39,2.26-.42,.37-1.58-.1-3.03-.25Z"/>
  <path class="cls-1" d="M592.77,427.46c-.52-5.83-6.34-5.85-10.88-8.91,6.64-2.45,12.73-.91,18.57-1.61,5.82-.7,11.7-.89,18-1.34-4.11,4.04-18.94,10.85-25.68,11.87Z"/>
  <path class="cls-1" d="M587.46,264.97c-3.94-3.16-4.53-6.16-3.08-9.64,2.45-5.86,2.81-11.65,.09-17.59-.7-1.53-1-3.63-.55-5.21,1.78-6.24,1.27-12.43,.31-18.68-.12-.8,.06-1.66,.14-3.17,3.53,1.7,4.57,4.31,4.56,7.22-.05,14.33-.22,28.65-.41,42.98-.01,1.04-.51,2.07-1.05,4.09Z"/>
  <path class="cls-1" d="M546.24,302.99c6.03-7.58,15.17-9.42,22.8-5.75,4.36,2.1,5.08,4.51,2.2,9.38-2.21-7.34-7.39-7.3-13.22-5.92-3.89,.92-7.85,1.54-11.78,2.29Z"/>
  <path class="cls-1" d="M558.25,431.78c4.06,1.72,8.25,3.5,13.42,5.7-7.24,5.35-14.94,2.85-21.26,5.99-.19-.47-.37-.94-.56-1.41,2-1.01,4.51-1.58,5.84-3.15,1.37-1.6,1.58-4.18,2.56-7.13Z"/>
  <path class="cls-1" d="M630.23,410.88c1.66-2.03,2.24-3.4,3.26-3.89,7.6-3.7,15.29-7.23,23.53-11.08-5.17,6.27-18.08,13.69-26.79,14.98Z"/>
  <path class="cls-1" d="M521.65,240.83c.1,.08,1.86,.88,1.8,1.52-.12,1.28-.95,3.13-1.99,3.56-2.65,1.1-5.56,1.59-8.39,2.23-2.16,.49-3.86-.6-3.76-2.59,.06-1.35,1.43-3.46,2.61-3.78,2.74-.75,5.72-.62,9.73-.94Z"/>
  <path class="cls-1" d="M615.66,284.82c-4.73,.51-6.93-1.97-8.77-5.14,.82-2.43,2.34-3.43,4.6-2.45,3,1.3,5.39,3.15,4.17,7.6Z"/>
  <path class="cls-1" d="M477.82,297.97c-2.24,1.3-3.41,2.54-4.6,2.57-2.69,.06-4.34-1.8-3.88-4.36,.26-1.41,1.96-2.56,3.02-3.83,1.58,1.62,3.16,3.25,5.46,5.61Z"/>
  <path class="cls-1" d="M595.22,348.15c-3.74,4.95-7.45,5.79-11.82,4.92,2.97-2.68,5.71-5.87,11.82-4.92Z"/>
  <path class="cls-1" d="M559.02,416.85c3.08,.92,6.16,1.85,9.89,2.97-4,2.67-4.61,2.53-9.89-2.97Z"/>
  <path class="cls-1" d="M522.12,257.05c1.65-2.03,3.31-4.06,5.45-6.7q.87,5.41-4.23,7.72c-.41-.34-.82-.68-1.22-1.02Z"/>
  <path class="cls-1" d="M475.15,275.33q2.28,3.73-.08,7.38-2.22-3.29,.08-7.38Z"/>
  <path class="cls-1" d="M600.96,559.6c-2.9,4.7-9.22,8.06-12.94,7.32-3.09-.62-4.18-2.4-4.21-7.52,2.85,.31,5.63,.81,8.42,.85,2.76,.04,5.53-.39,8.73-.65Z"/>
  <path class="cls-1" d="M663.51,627.09c-6.32,1.09-6.95,.7-10.75-6.46,4.14-.73,7.84,1.5,10.75,6.46Z"/>
  <polygon class="cls-1" points="680.06 587.29 679.92 587.45 680.1 587.33 680.06 587.29"/>
  <path class="cls-1" d="M500.31,1471.53c-3.97-5.19-6.33-10.82-4.49-17.45,2.27,5.6,7.36,10.42,4.49,17.45Z"/>
</svg>